<svg width="69" height="75" viewBox="0 0 69 75" fill="none" xmlns="http://www.w3.org/2000/svg">
<g id="Highlight_05">
<path id="Vector" fill-rule="evenodd" clip-rule="evenodd" d="M45.1945 5.7674C51.6169 7.48185 58.3284 8.30256 64.8385 9.04982C66.2406 9.206 67.5279 8.21855 67.6105 6.84939C67.7931 5.47796 66.7766 4.23879 65.4745 4.08134C59.1649 3.36253 52.6551 2.59027 46.5336 0.938988C45.229 0.580552 43.8383 1.37029 43.4552 2.70327C43.0721 4.03525 43.8899 5.40796 45.1945 5.7674Z" fill="white"/>
<path id="Vector_2" fill-rule="evenodd" clip-rule="evenodd" d="M26.1209 31.475C36.5537 41.8541 48.2693 50.8639 58.5057 61.5276C59.4185 62.524 61.019 62.5577 62.007 61.604C62.9949 60.6494 63.0744 59.0643 62.0617 58.0691C51.8248 47.3744 40.1089 38.3347 29.6756 27.9245C28.6632 26.9533 27.0635 26.9597 26.0759 27.9403C25.1883 28.9187 25.1085 30.5038 26.1209 31.475Z" fill="white"/>
<path id="Vector_3" fill-rule="evenodd" clip-rule="evenodd" d="M7.33515 72.1463C6.95866 66.1346 6.58276 60.1229 6.20626 54.1102C6.18873 52.7323 4.97471 51.6836 3.57567 51.7684C2.17665 51.8542 1.19224 53.0399 1.20978 54.4187C1.58639 60.4404 1.96241 66.4611 2.33902 72.4818C2.45653 73.8585 3.67008 74.9001 5.06901 74.8073C6.36795 74.7158 7.45266 73.5219 7.33515 72.1463Z" fill="white"/>
</g>
</svg>
