<svg width="119" height="71" viewBox="0 0 119 71" fill="none" xmlns="http://www.w3.org/2000/svg">
<path fill-rule="evenodd" clip-rule="evenodd" d="M85.8008 67.5453C96.4255 67.8023 107.283 67.2884 117.442 70.9324C118.048 71.1473 118.714 70.8342 118.932 70.2269C119.147 69.6196 118.835 68.9516 118.229 68.732C107.833 65.0039 96.7283 65.4711 85.8567 65.2095C85.2139 65.1908 84.6783 65.7047 84.6643 66.3494C84.6457 66.9941 85.158 67.5267 85.8008 67.5453Z" fill="#F7C410"/>
<path fill-rule="evenodd" clip-rule="evenodd" d="M84.8459 52.0737C88.1577 49.0175 91.7722 46.7279 96.1414 45.5931C96.7655 45.4315 97.1381 44.7938 96.9797 44.1696C96.8167 43.5455 96.1786 43.1703 95.5591 43.332C90.8081 44.5653 86.8721 47.0329 83.2716 50.3541C82.7965 50.7904 82.7638 51.53 83.2017 52.0046C83.6349 52.4788 84.3755 52.5101 84.8459 52.0737Z" fill="#F7C410"/>
<path fill-rule="evenodd" clip-rule="evenodd" d="M75.6328 18.7069C77.1513 13.4863 80.1417 9.40223 84.725 6.45296C85.2653 6.10491 85.4237 5.38174 85.0744 4.83935C84.7297 4.29696 84.0077 4.13904 83.4674 4.48708C78.3949 7.75263 75.0785 12.2721 73.397 18.0524C73.2153 18.671 73.574 19.3203 74.1889 19.5007C74.8084 19.6815 75.4558 19.3255 75.6328 18.7069Z" fill="#F7C410"/>
<path fill-rule="evenodd" clip-rule="evenodd" d="M23.3011 11.6217C22.3975 12.6883 21.587 13.8375 20.8976 15.061C20.5902 15.6058 20.0499 16.7634 19.966 17.7561C19.8729 18.8138 20.2315 19.7062 21.1538 20.1761C22.3788 20.7993 23.357 20.7344 24.1116 20.3574C24.8382 19.9953 25.4064 19.2838 25.7651 18.3299C26.4498 16.5065 26.3473 13.7198 25.9887 12.1295C26.9529 11.1316 28.0102 10.2267 29.1421 9.42223C37.5729 3.43072 49.9397 5.64 59.4558 14.5985C62.7862 17.7351 64.3885 24.3223 65.2222 31.4294C66.5218 42.4954 65.7812 54.8549 65.6787 58.476C65.6554 59.3702 65.7392 59.9009 65.7858 60.0069C66.0047 60.5283 66.3913 60.6638 66.6615 60.7152C67.0528 60.7852 67.3648 60.7105 67.6163 60.5797C67.9564 60.4003 68.2359 60.0845 68.3663 59.5972C68.4362 59.3281 68.4548 58.9535 68.4455 58.554C68.4361 58.277 68.3802 57.9743 68.4361 57.7757C68.7995 56.5041 69.2373 55.2623 69.6658 54.0117C71.0958 49.8076 72.945 45.8679 74.9992 41.9329C81.5249 29.4294 87.8363 16.2182 98.5355 6.69207C99.0153 6.2646 99.0619 5.52554 98.6334 5.04341C98.2095 4.56129 97.4735 4.51737 96.9891 4.9453C86.0756 14.6597 79.5918 28.0985 72.9357 40.8495C71.189 44.1968 69.5866 47.5488 68.2545 51.0549C68.3896 44.8527 68.3383 36.2675 67.2065 28.6712C66.2003 21.9154 64.286 15.9449 61.0487 12.8957C50.6243 3.08174 37.0279 0.95284 27.7959 7.51664C26.8085 8.21927 25.8676 8.99199 24.9919 9.8301C20.1617 1.08226 9.82111 -2.4239 0.682306 1.76011C0.0954106 2.0278 -0.16077 2.72109 0.104731 3.30739C0.374889 3.8937 1.06423 4.15252 1.65113 3.88483C9.8863 0.114736 19.2254 3.47931 23.3011 11.6217ZM23.9765 14.5504C23.5992 15.0848 23.2498 15.6389 22.9238 16.2117C22.7515 16.5191 22.4533 17.1101 22.3276 17.6884C22.2996 17.8239 22.295 18.036 22.295 18.1341C22.6164 18.2929 22.8679 18.3696 23.0728 18.2663C23.329 18.1392 23.4595 17.8403 23.5852 17.5062C23.902 16.6681 24.0044 15.5572 23.9765 14.5504Z" fill="#F7C410"/>
</svg>
