<svg width="223" height="35" viewBox="0 0 223 35" fill="none" xmlns="http://www.w3.org/2000/svg">
<path fill-rule="evenodd" clip-rule="evenodd" d="M133.459 15.9859C103.781 16.6075 74.0892 19.0736 44.5412 23.4816C30.4931 25.5777 14.179 25.3156 0.554158 32.4619C-0.124735 32.8215 0.00455763 33.9004 0.0192523 34.0083C0.0486416 34.2292 0.172108 34.9639 0.712872 34.9998C0.771651 35.005 1.18601 34.9022 1.34471 34.8662C5.36811 33.9415 9.37682 32.8627 13.4032 31.9893C27.3043 28.9633 41.2466 26.6771 55.2095 24.6735C73.7424 22.0123 92.434 20.5943 111.017 19.4846C121.189 18.8783 131.604 19.6849 141.808 18.4314C145.555 18.3954 149.302 18.3904 153.049 18.4109C168.714 18.5085 184.361 19.5463 199.999 20.9694C205.027 21.4266 208.863 21.9198 213.785 22.2538C215.655 22.3822 218.62 22.4695 220.683 22.5261C220.986 22.5363 221.759 22.5465 222.079 22.5516C222.111 22.5619 222.144 22.5619 222.179 22.5619C222.302 22.5619 222.361 22.5465 222.373 22.5465C223.072 22.3667 223.008 21.2108 222.99 21.0361C222.987 21.0001 222.881 20.024 222.279 19.988C222.135 19.9778 221.103 19.9676 220.707 19.9573C218.655 19.9008 215.702 19.8134 213.841 19.6901C208.927 19.3562 205.095 18.863 200.075 18.4058C184.414 16.9827 168.743 15.9398 153.055 15.8422C151.139 15.8319 149.22 15.8267 147.304 15.8319C147.239 15.539 147.095 15.2102 146.778 15.0664C146.481 14.9328 144.356 14.8147 143.536 14.6965C137.467 13.8231 137.647 13.8642 130.969 13.1501C120.856 12.0661 119.316 11.8194 108.798 11.3621C89.692 10.5299 70.5771 10.5967 51.4682 10.6789C42.0342 10.7252 31.9331 11.84 22.3551 9.75931C25.5115 9.11199 28.6797 8.63934 31.842 8.09991C42.6397 6.26068 53.4461 5.1201 64.2878 4.31865C90.2944 2.39722 116.342 1.63179 142.34 4.25192C136.806 4.34439 131.275 4.5601 125.741 4.69882C103.214 5.27422 80.4696 4.84271 57.9897 7.8276C57.5871 7.88412 57.2844 8.50058 57.3138 9.20442C57.3431 9.9134 57.6987 10.4426 58.1014 10.3912C80.5519 7.40632 103.264 7.84297 125.761 7.26757C134.12 7.05693 142.475 6.67679 150.833 6.78982C153.702 6.83092 156.57 7.0159 159.439 7.07755C160.006 7.09296 161.467 7.28819 161.675 7.20599C162.137 7.02617 162.237 6.43018 162.266 6.13734C162.281 5.96267 162.328 4.95572 161.622 4.59609C156.808 2.14036 147.924 2.25339 143.245 1.77046C116.927 -0.952414 90.556 -0.192083 64.2261 1.74989C53.358 2.55648 42.525 3.70222 31.698 5.54658C27.9156 6.18877 24.1244 6.74361 20.3567 7.59644C19.7483 7.73515 18.3817 7.93555 17.7205 8.14619C17.4442 8.23353 17.2444 8.35674 17.1562 8.44408C16.8123 8.78315 16.7506 9.27637 16.7506 9.6103C16.7477 9.86718 16.8094 10.7714 17.5294 11.018C28.5005 14.7735 40.4384 13.2991 51.4712 13.2477C70.5683 13.1655 89.6684 13.0986 108.763 13.9309C119.255 14.3881 120.789 14.6297 130.881 15.7137C131.877 15.8165 132.721 15.9088 133.459 15.9859Z" fill="#FFFCFB"/>
</svg>
