<svg width="237" height="26" viewBox="0 0 237 26" fill="none" xmlns="http://www.w3.org/2000/svg">
<g id="Underline_10">
<g id="Group">
<path id="Vector" fill-rule="evenodd" clip-rule="evenodd" d="M141.837 11.8752C110.297 12.337 78.7405 14.169 47.3375 17.4435C32.4074 19.0006 15.0692 18.8059 0.588948 24.1146C-0.132566 24.3817 0.00484376 25.1832 0.020461 25.2633C0.0516953 25.4274 0.182913 25.9731 0.757626 25.9999C0.820095 26.0037 1.26047 25.9273 1.42914 25.9006C5.70512 25.2137 9.9655 24.4123 14.2446 23.7635C29.0185 21.5156 43.8361 19.8173 58.6755 18.3289C78.3719 16.352 98.237 15.2986 117.987 14.4743C128.797 14.0239 139.866 14.6231 150.711 13.6919C154.693 13.6652 158.676 13.6614 162.658 13.6767C179.306 13.7492 195.935 14.5201 212.555 15.5773C217.899 15.9169 221.975 16.2833 227.207 16.5314C229.193 16.6268 232.345 16.6917 234.538 16.7336C234.859 16.7413 235.681 16.7488 236.021 16.7527C236.056 16.7603 236.09 16.7603 236.127 16.7603C236.259 16.7603 236.321 16.7488 236.334 16.7488C237.077 16.6153 237.008 15.7566 236.99 15.6268C236.986 15.6001 236.874 14.875 236.234 14.8483C236.081 14.8406 234.984 14.8331 234.563 14.8254C232.382 14.7834 229.243 14.7186 227.266 14.627C222.044 14.3789 217.971 14.0125 212.636 13.6729C195.991 12.6157 179.337 11.841 162.664 11.7685C160.628 11.7608 158.588 11.757 156.552 11.7608C156.483 11.5433 156.33 11.299 155.993 11.1922C155.677 11.093 153.419 11.0052 152.547 10.9174C146.098 10.2686 146.288 10.2991 139.192 9.76866C128.444 8.96339 126.807 8.78011 115.628 8.44045C95.3228 7.82219 75.008 7.87187 54.6994 7.93293C44.6732 7.96728 33.9379 8.79543 23.7586 7.24977C27.1132 6.7689 30.4802 6.4178 33.8411 6.01707C45.3166 4.65079 56.8015 3.8035 68.3238 3.20814C95.9632 1.78079 123.646 1.21219 151.276 3.15857C145.395 3.22726 139.516 3.38751 133.635 3.49055C109.694 3.91799 85.5215 3.59744 61.6303 5.81479C61.2024 5.85677 60.8807 6.31472 60.9119 6.83757C60.9432 7.36424 61.3211 7.75735 61.749 7.71919C85.6089 5.50184 109.747 5.82621 133.657 5.39877C142.54 5.24229 151.42 4.9599 160.303 5.04386C163.351 5.0744 166.4 5.21181 169.448 5.25761C170.051 5.26906 171.604 5.41408 171.825 5.35302C172.316 5.21944 172.422 4.77671 172.453 4.55917C172.469 4.42941 172.519 3.68139 171.769 3.41424C166.653 1.58999 157.211 1.67395 152.238 1.3152C124.268 -0.707507 96.2412 -0.14269 68.2583 1.29992C56.7078 1.8991 45.1948 2.75022 33.688 4.12032C29.6682 4.59737 25.6389 5.00954 21.6347 5.64307C20.9881 5.74611 19.5357 5.89498 18.833 6.05145C18.5394 6.11633 18.327 6.20786 18.2333 6.27274C17.8678 6.52463 17.8022 6.89101 17.8022 7.13908C17.7991 7.3299 17.8647 8.00159 18.6299 8.18478C30.2897 10.9746 42.9771 9.87931 54.7025 9.84115C74.9986 9.78008 95.2979 9.73041 115.591 10.3487C126.742 10.6883 128.372 10.8678 139.098 11.6731C140.157 11.7494 141.053 11.818 141.837 11.8752Z" fill="#F6C410"/>
</g>
</g>
</svg>
