<svg width="70" height="70" viewBox="0 0 70 70" fill="none" xmlns="http://www.w3.org/2000/svg">
<circle cx="35" cy="35" r="35" fill="#332F2F"/>
<path d="M46.5696 27.1641C46.9845 27.8826 46.9289 28.7382 46.424 29.3968L35.338 43.8632C34.8808 44.4597 34.128 44.7639 33.3583 44.6161C32.6045 44.4711 32.0068 43.9217 31.7994 43.1826L30.159 37.3446L29.9882 36.7374L29.5477 36.2858L25.3121 31.9462C24.7757 31.3971 24.5987 30.6047 24.8501 29.8794C25.0988 29.1625 25.7227 28.6422 26.492 28.5414L44.5632 26.1739C45.386 26.0659 46.1548 26.4455 46.5696 27.1641Z" fill="white"/>
<path d="M30.1591 37.3446L31.7994 43.1826C32.0068 43.9217 32.6045 44.4711 33.3583 44.6161C34.1281 44.7639 34.8809 44.4598 35.3381 43.8632L46.424 29.3968C46.9289 28.7382 46.9846 27.8826 46.5697 27.1641L29.9883 36.7374L30.1591 37.3446Z" fill="white"/>
<path d="M36.7359 32.8418C36.9046 33.134 36.8047 33.5079 36.5121 33.6768L30.1591 37.3447L29.9883 36.7375L29.5479 36.2859L35.9008 32.618C36.1934 32.4491 36.5672 32.5495 36.7359 32.8418Z" fill="#F9EFE8"/>
<path d="M30.159 37.3446L36.512 33.6767C36.8046 33.5078 36.9045 33.1339 36.7358 32.8416L29.9882 36.7374L30.159 37.3446Z" fill="#F9EFE8"/>
</svg>
