<svg width="41" height="41" viewBox="0 0 41 41" fill="none" xmlns="http://www.w3.org/2000/svg">
<g id="101-dice 1" clip-path="url(#clip0_803_2888)">
<g id="Group">
<g id="Group_2">
<path id="Vector" d="M37.9001 0.000976562H3.09978C1.39053 0.000976562 0 1.39192 0 3.10084V37.9008C0 39.6096 1.39053 41.0006 3.09978 41.0006H37.9001C39.609 41.0006 40.9999 39.6096 40.9999 37.9008V3.10084C41 1.39192 39.6091 0.000976562 37.9001 0.000976562ZM39.36 37.9008C39.36 38.7055 38.705 39.3606 37.9001 39.3606H3.09978C2.29504 39.3606 1.63996 38.7056 1.63996 37.9008V3.10084C1.63996 2.2961 2.29496 1.64102 3.09978 1.64102H37.9001C38.7049 1.64102 39.36 2.29602 39.36 3.10084V37.9008Z" fill="black"/>
</g>
</g>
<g id="Group_3">
<g id="Group_4">
<path id="Vector_2" d="M30.881 5.19482C28.1655 5.19482 25.957 7.40334 25.957 10.1188C25.957 12.8342 28.1655 15.0427 30.881 15.0427C33.5964 15.0427 35.8058 12.8342 35.8058 10.1188C35.8058 7.40342 33.5964 5.19482 30.881 5.19482ZM30.881 13.4028C29.0705 13.4028 27.597 11.9294 27.597 10.1188C27.597 8.30826 29.0704 6.83478 30.881 6.83478C32.6923 6.83478 34.1657 8.30818 34.1657 10.1188C34.1657 11.9294 32.6923 13.4028 30.881 13.4028Z" fill="black"/>
</g>
</g>
<g id="Group_5">
<g id="Group_6">
<path id="Vector_3" d="M10.1187 5.19482C7.40326 5.19482 5.19434 7.40334 5.19434 10.1188C5.19434 12.8342 7.40326 15.0427 10.1187 15.0427C12.8337 15.0427 15.0427 12.8342 15.0427 10.1188C15.0427 7.40342 12.8337 5.19482 10.1187 5.19482ZM10.1187 13.4028C8.30777 13.4028 6.83429 11.9294 6.83429 10.1188C6.83429 8.30826 8.30769 6.83478 10.1187 6.83478C11.9297 6.83478 13.4027 8.30818 13.4027 10.1188C13.4027 11.9294 11.9296 13.4028 10.1187 13.4028Z" fill="black"/>
</g>
</g>
<g id="Group_7">
<g id="Group_8">
<path id="Vector_4" d="M30.881 25.9563C28.1655 25.9563 25.957 28.1648 25.957 30.8803C25.957 33.5957 28.1655 35.805 30.881 35.805C33.5964 35.805 35.8058 33.5957 35.8058 30.8803C35.8058 28.1648 33.5964 25.9563 30.881 25.9563ZM30.881 34.1651C29.0705 34.1651 27.597 32.6917 27.597 30.8803C27.597 29.0698 29.0704 27.5963 30.881 27.5963C32.6923 27.5963 34.1657 29.0697 34.1657 30.8803C34.1657 32.6916 32.6923 34.1651 30.881 34.1651Z" fill="black"/>
</g>
</g>
<g id="Group_9">
<g id="Group_10">
<path id="Vector_5" d="M20.4991 15.5752C17.7841 15.5752 15.5752 17.7845 15.5752 20.5C15.5752 23.2154 17.7841 25.4239 20.4991 25.4239C23.2142 25.4239 25.4235 23.2154 25.4235 20.5C25.4235 17.7845 23.2142 15.5752 20.4991 15.5752ZM20.4991 23.7839C18.6882 23.7839 17.2151 22.3105 17.2151 20.4999C17.2151 18.6885 18.6882 17.2152 20.4991 17.2152C22.3101 17.2152 23.7835 18.6885 23.7835 20.4999C23.7835 22.3105 22.3101 23.7839 20.4991 23.7839Z" fill="black"/>
</g>
</g>
<g id="Group_11">
<g id="Group_12">
<path id="Vector_6" d="M10.1187 25.9563C7.40326 25.9563 5.19434 28.1648 5.19434 30.8803C5.19434 33.5957 7.40326 35.805 10.1187 35.805C12.8337 35.805 15.0427 33.5957 15.0427 30.8803C15.0427 28.1648 12.8337 25.9563 10.1187 25.9563ZM10.1187 34.1651C8.30777 34.1651 6.83429 32.6917 6.83429 30.8803C6.83429 29.0698 8.30769 27.5963 10.1187 27.5963C11.9297 27.5963 13.4027 29.0697 13.4027 30.8803C13.4027 32.6916 11.9296 34.1651 10.1187 34.1651Z" fill="black"/>
</g>
</g>
</g>
<defs>
<clipPath id="clip0_803_2888">
<rect width="41" height="41" fill="white"/>
</clipPath>
</defs>
</svg>
