<svg width="49" height="49" viewBox="0 0 49 49" fill="none" xmlns="http://www.w3.org/2000/svg">
<g id="101-laptop 1">
<g id="Group">
<g id="Group_2">
<path id="Vector" d="M46.0389 37.0285V9.17126C46.0389 7.00934 44.2809 5.25122 42.1189 5.25122H6.88009C4.71818 5.25122 2.96006 7.00924 2.96006 9.17126V37.0285H0V41.1045L2.79454 43.7488H46.2055L49 41.1045V37.0285H46.0389ZM4.92013 9.17126C4.92013 8.09075 5.79968 7.21129 6.88009 7.21129H42.1189C43.1994 7.21129 44.0789 8.09085 44.0789 9.17126V37.0285H4.92013V9.17126ZM47.0399 40.2604L45.4244 41.7888H3.57546L1.95997 40.2604V38.9885H2.96006H46.0388H47.0399V40.2604Z" fill="black"/>
</g>
</g>
<g id="Group_3">
<g id="Group_4">
<path id="Vector_2" d="M7.86035 10.1511V34.0884H41.1392V10.1511H7.86035ZM39.1792 32.1284H9.82032V12.1112H39.1791V32.1284H39.1792Z" fill="black"/>
</g>
</g>
</g>
</svg>
