<svg width="91" height="91" viewBox="0 0 91 91" fill="none" xmlns="http://www.w3.org/2000/svg">
<g id="034-promotion 1">
<g id="Group">
<path id="Vector" d="M53.8537 19.2664C52.6958 19.2687 51.5861 19.7302 50.7679 20.5495C49.9497 21.3689 49.4899 22.4793 49.4892 23.6372V23.9427C49.3203 24.092 49.1578 24.245 49.006 24.4038C47.2642 26.2058 45.1785 27.64 42.8724 28.6212C40.5663 29.6024 38.0866 30.1108 35.5805 30.1162H22.8507C21.6759 30.1182 20.5364 30.5182 19.6181 31.251C18.6999 31.9837 18.0569 33.006 17.7943 34.1511C16.2576 34.3831 14.8551 35.1585 13.8415 36.3366C12.8279 37.5147 12.2705 39.0172 12.2705 40.5713C12.2705 42.1254 12.8279 43.628 13.8415 44.806C14.8551 45.9841 16.2576 46.7595 17.7943 46.9915C18.0408 48.0645 18.6218 49.0314 19.4534 49.7528C20.285 50.4743 21.3242 50.9129 22.4212 51.0056V61.5594C22.4143 62.14 22.5226 62.7162 22.74 63.2547C22.9573 63.7931 23.2794 64.283 23.6875 64.6961C24.0957 65.1091 24.5817 65.4371 25.1175 65.6609C25.6533 65.8847 26.2281 65.9999 26.8088 65.9999C27.3895 65.9999 27.9643 65.8847 28.5001 65.6609C29.0359 65.4371 29.522 65.1091 29.9301 64.6961C30.3382 64.283 30.6603 63.7931 30.8776 63.2547C31.095 62.7162 31.2033 62.14 31.1964 61.5594V51.029H35.5786C38.0841 51.034 40.5632 51.542 42.8689 52.5227C45.1746 53.5033 47.26 54.9368 49.0015 56.7382C49.1546 56.8983 49.3178 57.0545 49.4873 57.2031V57.5074C49.4873 58.6659 49.9475 59.777 50.7667 60.5962C51.586 61.4154 52.697 61.8756 53.8556 61.8756C55.0141 61.8756 56.1252 61.4154 56.9444 60.5962C57.7636 59.777 58.2238 58.6659 58.2238 57.5074V23.6372C58.2247 23.063 58.1122 22.4943 57.8929 21.9637C57.6736 21.4331 57.3517 20.9509 56.9458 20.5449C56.5398 20.1389 56.0577 19.8169 55.5271 19.5976C54.9965 19.3782 54.4278 19.2656 53.8537 19.2664ZM17.6595 44.715C16.7467 44.4716 15.9398 43.9334 15.3643 43.1842C14.7887 42.435 14.4767 41.5167 14.4767 40.572C14.4767 39.6272 14.7887 38.7089 15.3643 37.9597C15.9398 37.2105 16.7467 36.6723 17.6595 36.4289V44.715ZM28.9819 61.5594C28.9868 61.848 28.9342 62.1346 28.8272 62.4027C28.7202 62.6707 28.5608 62.9147 28.3585 63.1206C28.1562 63.3264 27.9149 63.4898 27.6487 63.6014C27.3825 63.713 27.0968 63.7705 26.8082 63.7705C26.5196 63.7705 26.2338 63.713 25.9677 63.6014C25.7015 63.4898 25.4602 63.3264 25.2579 63.1206C25.0555 62.9147 24.8962 62.6707 24.7892 62.4027C24.6821 62.1346 24.6296 61.848 24.6345 61.5594V51.029H28.9825L28.9819 61.5594ZM32.0218 48.8151H22.8501C22.0607 48.8143 21.3039 48.5003 20.7457 47.9422C20.1876 47.384 19.8736 46.6272 19.8728 45.8378V35.3074C19.8738 34.5181 20.1878 33.7615 20.746 33.2034C21.3041 32.6454 22.0608 32.3315 22.8501 32.3307H32.0218V48.8151ZM49.4892 54.1353C45.6602 50.7197 40.7115 48.827 35.5805 48.8158H34.2395V32.3301H35.5805C40.7116 32.3188 45.6604 30.4258 49.4892 27.0098V54.1353ZM56.0119 57.508C56.0119 58.0794 55.7849 58.6274 55.3809 59.0314C54.9768 59.4354 54.4289 59.6624 53.8575 59.6624C53.2861 59.6624 52.7381 59.4354 52.3341 59.0314C51.9301 58.6274 51.7031 58.0794 51.7031 57.508V23.6372C51.7031 23.0658 51.9301 22.5178 52.3341 22.1138C52.7381 21.7097 53.2861 21.4828 53.8575 21.4828C54.4289 21.4828 54.9768 21.7097 55.3809 22.1138C55.7849 22.5178 56.0119 23.0658 56.0119 23.6372V57.508Z" fill="black"/>
<path id="Vector_2" d="M70.3003 39.4656H64.772C64.4784 39.4656 64.1968 39.5822 63.9892 39.7898C63.7817 39.9974 63.665 40.2789 63.665 40.5725C63.665 40.8661 63.7817 41.1476 63.9892 41.3552C64.1968 41.5628 64.4784 41.6794 64.772 41.6794H70.3003C70.5939 41.6794 70.8754 41.5628 71.083 41.3552C71.2906 41.1476 71.4072 40.8661 71.4072 40.5725C71.4072 40.2789 71.2906 39.9974 71.083 39.7898C70.8754 39.5822 70.5939 39.4656 70.3003 39.4656Z" fill="black"/>
<path id="Vector_3" d="M67.082 22.8498L61.5537 24.8562C61.3066 24.9435 61.0984 25.1156 60.9663 25.3419C60.8342 25.5683 60.7867 25.8342 60.8323 26.0923C60.8778 26.3504 61.0135 26.5839 61.2151 26.7514C61.4167 26.9188 61.6711 27.0093 61.9332 27.0068C62.0626 27.0072 62.1911 26.9847 62.3127 26.9404L67.8404 24.9333C67.977 24.8838 68.1025 24.8078 68.2098 24.7098C68.317 24.6117 68.4039 24.4935 68.4655 24.3619C68.527 24.2302 68.562 24.0878 68.5685 23.9426C68.575 23.7975 68.5529 23.6524 68.5033 23.5158C68.4538 23.3792 68.3778 23.2537 68.2798 23.1465C68.1817 23.0392 68.0635 22.9524 67.9319 22.8908C67.8002 22.8293 67.6578 22.7942 67.5126 22.7877C67.3674 22.7812 67.2224 22.8034 67.0858 22.8529L67.082 22.8498Z" fill="black"/>
<path id="Vector_4" d="M67.8375 56.215L62.3098 54.208C62.0354 54.1142 61.7352 54.1317 61.4737 54.2569C61.2122 54.3821 61.0103 54.6049 60.9113 54.8774C60.8123 55.1499 60.8241 55.4503 60.9443 55.7142C61.0644 55.978 61.2833 56.1842 61.5539 56.2884L67.0822 58.2954C67.2197 58.349 67.3665 58.3746 67.514 58.3707C67.6615 58.3667 67.8068 58.3333 67.9412 58.2724C68.0756 58.2115 68.1965 58.1244 68.2967 58.0161C68.397 57.9078 68.4746 57.7806 68.5249 57.6418C68.5753 57.5031 68.5974 57.3558 68.59 57.2084C68.5825 57.061 68.5457 56.9166 68.4817 56.7836C68.4176 56.6507 68.3276 56.5319 68.217 56.4343C68.1064 56.3366 67.9773 56.262 67.8375 56.215Z" fill="black"/>
</g>
</g>
</svg>
