<svg width="48" height="48" viewBox="0 0 48 48" fill="none" xmlns="http://www.w3.org/2000/svg">
<g id="web-site 1">
<path id="Vector" d="M42.5507 45.1369H5.44928C2.44475 45.1369 0 42.6921 0 39.6876V8.23199C0 5.22746 2.44475 2.78271 5.44928 2.78271H42.5507C45.5553 2.78271 48 5.22746 48 8.23199V39.6876C48 42.6921 45.5553 45.1369 42.5507 45.1369ZM5.44928 4.4059C3.33967 4.4059 1.62319 6.12239 1.62319 8.23199V39.6876C1.62319 41.7972 3.33967 43.5137 5.44928 43.5137H42.5507C44.6603 43.5137 46.3768 41.7972 46.3768 39.6876V8.23199C46.3768 6.12239 44.6603 4.4059 42.5507 4.4059H5.44928Z" fill="black"/>
<path id="Vector_2" d="M40.6751 32.746H27.9219C27.4736 32.746 27.1104 32.3828 27.1104 31.9344C27.1104 31.4865 27.4736 31.1228 27.9219 31.1228H40.6751C41.123 31.1228 41.4867 31.4865 41.4867 31.9344C41.4867 32.3828 41.1235 32.746 40.6751 32.746Z" fill="black"/>
<path id="Vector_3" d="M40.6751 38.6137H27.9219C27.4736 38.6137 27.1104 38.2504 27.1104 37.8021C27.1104 37.3542 27.4736 36.9905 27.9219 36.9905H40.6751C41.123 36.9905 41.4867 37.3542 41.4867 37.8021C41.4867 38.2504 41.1235 38.6137 40.6751 38.6137Z" fill="black"/>
<path id="Vector_4" d="M40.6751 21.0104H27.9219C27.4736 21.0104 27.1104 20.6472 27.1104 20.1988C27.1104 19.7509 27.4736 19.3872 27.9219 19.3872H40.6751C41.123 19.3872 41.4867 19.7509 41.4867 20.1988C41.4867 20.6472 41.1235 21.0104 40.6751 21.0104Z" fill="black"/>
<path id="Vector_5" d="M40.6751 26.8781H27.9219C27.4736 26.8781 27.1104 26.5149 27.1104 26.0665C27.1104 25.6186 27.4736 25.2549 27.9219 25.2549H40.6751C41.123 25.2549 41.4867 25.6186 41.4867 26.0665C41.4867 26.5149 41.1235 26.8781 40.6751 26.8781Z" fill="black"/>
<path id="Vector_6" d="M47.1884 13.6498H0.811594C0.363225 13.6498 0 13.2866 0 12.8382C0 12.3898 0.363225 12.0266 0.811594 12.0266H47.1884C47.6368 12.0266 48 12.3898 48 12.8382C48 13.2866 47.6368 13.6498 47.1884 13.6498Z" fill="black"/>
<path id="Vector_7" d="M11.7006 10.7573C10.308 10.7573 9.1748 9.62457 9.1748 8.23191C9.1748 6.83924 10.308 5.70654 11.7006 5.70654C13.0933 5.70654 14.226 6.83924 14.226 8.23191C14.226 9.62457 13.0933 10.7573 11.7006 10.7573ZM11.7006 7.32973C11.2029 7.32973 10.798 7.73462 10.798 8.23191C10.798 8.72919 11.2029 9.13408 11.7006 9.13408C12.1979 9.13408 12.6028 8.72919 12.6028 8.23191C12.6028 7.73462 12.1979 7.32973 11.7006 7.32973Z" fill="black"/>
<path id="Vector_8" d="M5.85251 10.7573C4.4603 10.7573 3.32715 9.62457 3.32715 8.23191C3.32715 6.83924 4.4603 5.70654 5.85251 5.70654C7.24517 5.70654 8.37833 6.83924 8.37833 8.23191C8.37833 9.62457 7.24517 10.7573 5.85251 10.7573ZM5.85251 7.32973C5.35523 7.32973 4.95034 7.73462 4.95034 8.23191C4.95034 8.72919 5.35523 9.13408 5.85251 9.13408C6.35025 9.13408 6.75514 8.72919 6.75514 8.23191C6.75514 7.73462 6.35025 7.32973 5.85251 7.32973Z" fill="black"/>
<path id="Vector_9" d="M17.5478 10.7573C16.1552 10.7573 15.0225 9.62457 15.0225 8.23191C15.0225 6.83924 16.1552 5.70654 17.5478 5.70654C18.9405 5.70654 20.0736 6.83924 20.0736 8.23191C20.0736 9.62457 18.9405 10.7573 17.5478 10.7573ZM17.5478 7.32973C17.0501 7.32973 16.6456 7.73462 16.6456 8.23191C16.6456 8.72919 17.0505 9.13408 17.5478 9.13408C18.0456 9.13408 18.4504 8.72919 18.4504 8.23191C18.4504 7.73462 18.0456 7.32973 17.5478 7.32973Z" fill="black"/>
<path id="Vector_10" d="M21.797 38.6137H7.07234C6.62397 38.6137 6.26074 38.2504 6.26074 37.8021V20.1988C6.26074 19.7509 6.62397 19.3872 7.07234 19.3872H21.797C22.2453 19.3872 22.6086 19.7509 22.6086 20.1988V37.8021C22.6086 38.2504 22.2453 38.6137 21.797 38.6137ZM7.88393 36.9905H20.9854V21.0104H7.88393V36.9905Z" fill="black"/>
</g>
</svg>
