<svg width="75" height="75" viewBox="0 0 75 75" fill="none" xmlns="http://www.w3.org/2000/svg">
<g id="017-laptop 1">
<path id="Vector" d="M63.7451 48.3633H59.3037V22.3652C59.3026 21.3741 58.9084 20.4239 58.2076 19.7231C57.5068 19.0222 56.5565 18.628 55.5654 18.627H19.1904C18.1993 18.628 17.2491 19.0222 16.5483 19.7231C15.8474 20.4239 15.4532 21.3741 15.4521 22.3652V48.3633H11.0107C10.7388 48.3633 10.478 48.4713 10.2857 48.6636C10.0934 48.8559 9.98535 49.1167 9.98535 49.3887V50.8242C9.98706 52.2953 10.5722 53.7057 11.6125 54.7459C12.6527 55.7862 14.0631 56.3713 15.5342 56.373H59.2217C60.6928 56.3715 62.1033 55.7864 63.1436 54.7461C64.1838 53.7058 64.769 52.2954 64.7705 50.8242V49.3887C64.7706 49.254 64.7441 49.1206 64.6926 48.9962C64.6411 48.8717 64.5656 48.7587 64.4704 48.6634C64.3751 48.5682 64.2621 48.4927 64.1376 48.4412C64.0132 48.3897 63.8798 48.3632 63.7451 48.3633ZM17.5029 22.3652C17.5034 21.9178 17.6813 21.4889 17.9977 21.1725C18.3141 20.8561 18.743 20.6782 19.1904 20.6777H55.5654C56.0128 20.6782 56.4418 20.8561 56.7582 21.1725C57.0745 21.4889 57.2525 21.9178 57.2529 22.3652V48.3633H43.3779C43.2433 48.3632 43.1099 48.3897 42.9854 48.4412C42.861 48.4927 42.7479 48.5682 42.6527 48.6634C42.5575 48.7587 42.4819 48.8717 42.4304 48.9962C42.3789 49.1206 42.3525 49.254 42.3525 49.3887V49.998C42.3525 50.1835 42.2793 50.3615 42.1487 50.4932C42.0181 50.6249 41.8407 50.6996 41.6553 50.7012H33.1006C32.9151 50.6996 32.7378 50.6249 32.6072 50.4932C32.4766 50.3615 32.4033 50.1835 32.4033 49.998V49.3887C32.4034 49.254 32.3769 49.1206 32.3254 48.9962C32.2739 48.8717 32.1984 48.7587 32.1032 48.6634C32.0079 48.5682 31.8949 48.4927 31.7704 48.4412C31.646 48.3897 31.5126 48.3632 31.3779 48.3633H17.5029V22.3652ZM62.7197 50.8242C62.7186 51.7516 62.3498 52.6407 61.694 53.2965C61.0382 53.9523 60.1491 54.3212 59.2217 54.3223H15.5342C14.6068 54.3212 13.7177 53.9523 13.0619 53.2965C12.4061 52.6407 12.0372 51.7516 12.0361 50.8242V50.4141H30.3836C30.4829 51.0639 30.8114 51.6568 31.3097 52.0855C31.808 52.5143 32.4432 52.7507 33.1006 52.752H41.6553C42.3126 52.7507 42.9479 52.5143 43.4462 52.0855C43.9445 51.6568 44.273 51.0639 44.3723 50.4141H62.7197V50.8242Z" fill="black"/>
</g>
</svg>
