<svg width="65" height="65" viewBox="0 0 65 65" fill="none" xmlns="http://www.w3.org/2000/svg">
<g id="038-setting 1">
<g id="Group">
<path id="Vector" d="M53.9297 27.8789L50.9844 27.5742C50.6289 27.5234 50.3242 27.2695 50.2227 26.9141C49.8672 25.8477 49.4609 24.832 48.9531 23.8672C48.8008 23.5625 48.8008 23.1562 49.0547 22.8516L50.9336 20.5156C51.7461 19.5508 51.6445 18.1289 50.7812 17.2148L47.6836 14.2188C46.8203 13.3047 45.3984 13.2539 44.3828 14.0664L41.9961 15.9961C41.6914 16.25 41.3359 16.25 40.9805 16.0977C40.0156 15.5898 39.0508 15.1836 37.9844 14.8789C37.6289 14.7773 37.375 14.4727 37.3242 14.1172L37.0195 11.0703C36.8672 9.80078 35.8516 8.88672 34.582 8.88672H30.3164C29.0469 8.88672 28.0312 9.85156 27.8789 11.0703L27.5742 14.1172C27.5234 14.4727 27.2695 14.7773 26.9141 14.8789C25.8984 15.1836 24.8828 15.5898 23.918 16.0977C23.6133 16.25 23.207 16.25 22.9023 15.9961L20.5156 14.0664C19.5508 13.2539 18.1289 13.3555 17.2148 14.2188L14.3203 17.2656C13.4062 18.1289 13.3555 19.5508 14.168 20.5664L16.0469 22.9023C16.3008 23.207 16.3008 23.6133 16.1484 23.918C15.6406 24.8828 15.1836 25.8984 14.8789 26.9648C14.7773 27.3203 14.4727 27.5742 14.1172 27.625L11.1719 27.9297C9.90234 28.082 8.98828 29.0977 8.98828 30.3672V34.6328C8.98828 35.9023 9.95312 36.918 11.1719 37.0703L14.0664 37.375C14.4219 37.4258 14.7266 37.6797 14.8281 38.0352C15.1328 39.1016 15.5898 40.168 16.0977 41.1836C16.25 41.4883 16.25 41.8945 15.9961 42.1992L14.2187 44.4336C13.4062 45.3984 13.5078 46.8203 14.3711 47.7344L17.3672 50.7305C18.2305 51.6445 19.6523 51.6953 20.668 50.8828L22.8516 49.1055C23.1562 48.8516 23.5625 48.8516 23.8672 49.0039C24.8828 49.5625 26 50.0195 27.0664 50.3242C27.4219 50.4258 27.6758 50.7305 27.7266 51.0859L27.9297 53.8281C28.082 55.0977 29.0977 56.0117 30.3672 56.0117H34.6328C35.9023 56.0117 36.9688 55.0469 37.0703 53.8281L37.375 51.0352C37.4258 50.6797 37.6797 50.375 38.0352 50.2734C39.1523 49.918 40.2187 49.4609 41.2344 48.9531C41.5391 48.8008 41.9453 48.8008 42.25 49.0547L44.4336 50.832C45.3984 51.6445 46.8203 51.543 47.7344 50.6797L50.7305 47.6836C51.6445 46.8203 51.6953 45.3984 50.8828 44.3828L49.1055 42.1484C48.8516 41.8438 48.8516 41.4883 49.0039 41.1328C49.5117 40.1172 49.9688 39.0508 50.2734 37.9844C50.375 37.6289 50.6797 37.375 51.0352 37.3242L53.9297 37.0195C55.1992 36.8672 56.1133 35.8516 56.1133 34.582V30.3164C56.1133 29.0469 55.1484 27.9805 53.9297 27.8789ZM54.5898 34.582C54.5898 35.0391 54.2344 35.4453 53.7773 35.4961L50.8828 35.8008C49.918 35.9023 49.1055 36.5625 48.8008 37.5273C48.4961 38.543 48.0898 39.5078 47.6328 40.4219C47.1758 41.2852 47.2773 42.3516 47.8867 43.0625L49.6641 45.2969C49.9688 45.6523 49.918 46.2109 49.6133 46.5156L46.6172 49.5117C46.2617 49.8672 45.7539 49.8672 45.3984 49.5625L43.2148 47.7852C42.4531 47.1758 41.3867 47.0742 40.5234 47.5312C39.5586 48.0391 38.5938 48.4453 37.5781 48.75C36.6641 49.0547 35.9531 49.8672 35.8516 50.832L35.5469 53.5742C35.4961 54.0312 35.0898 54.3867 34.6328 54.3867H30.3672C29.9102 54.3867 29.5039 54.0312 29.4531 53.5742L29.1484 50.832C29.0469 49.8672 28.3867 49.0547 27.4219 48.75C26.4062 48.4453 25.3906 48.0391 24.4766 47.5312C23.6133 47.0742 22.5469 47.1758 21.7852 47.7852L19.6016 49.5625C19.2461 49.8672 18.6875 49.8164 18.3828 49.5117L15.3867 46.5156C15.0312 46.1602 15.0312 45.6523 15.3359 45.2969L17.1133 43.0625C17.7227 42.3008 17.8242 41.2852 17.3672 40.4219C16.9102 39.5078 16.5039 38.543 16.1992 37.5273C15.8945 36.5625 15.082 35.9023 14.1172 35.8008L11.2227 35.4961C10.7656 35.4453 10.4102 35.0391 10.4102 34.582V30.3164C10.4102 29.8594 10.7656 29.4531 11.2227 29.4023L14.168 29.0977C15.1328 28.9961 15.9453 28.3359 16.25 27.4219C16.5547 26.457 16.9609 25.543 17.418 24.6289C17.875 23.7656 17.7734 22.6992 17.1641 21.9375L15.2852 19.6016C14.9805 19.2461 15.0312 18.6875 15.3359 18.3828L18.332 15.3867C18.6875 15.0312 19.1953 15.0313 19.5508 15.3359L21.9375 17.2656C22.6992 17.875 23.7148 17.9766 24.5781 17.5195C25.4414 17.0625 26.3555 16.707 27.3203 16.4023C28.2344 16.0977 28.9453 15.2852 29.0469 14.3203L29.3516 11.2734C29.4023 10.8164 29.8086 10.4609 30.2656 10.4609H34.5312C34.9883 10.4609 35.3945 10.8164 35.4453 11.2734L35.75 14.3203C35.8516 15.2852 36.5117 16.0977 37.4766 16.4023C38.4414 16.707 39.3555 17.0625 40.2187 17.5195C41.082 17.9766 42.1484 17.875 42.8594 17.2656L45.2461 15.3359C45.6016 15.0313 46.1602 15.082 46.4648 15.3867L49.4609 18.3828C49.8164 18.7383 49.8164 19.2461 49.5117 19.6016L47.6328 21.9375C47.0234 22.6992 46.9219 23.7656 47.3789 24.6289C47.8359 25.543 48.2422 26.457 48.5469 27.4219C48.8516 28.3359 49.6641 28.9961 50.6289 29.0977L53.5742 29.4023C54.0312 29.4531 54.3867 29.8594 54.3867 30.3164L54.5898 34.582Z" fill="black"/>
<path id="Vector_2" d="M32.5 21.0234C26.1016 21.0234 20.9219 26.2031 20.9219 32.5508C20.9219 38.8477 26.0508 44.1289 32.5 44.1289C38.7969 44.1289 44.0273 39 44.0781 32.5508C44.0273 26.2031 38.8984 21.0234 32.5 21.0234ZM32.5 42.6055C27.0156 42.6055 22.4961 38.1875 22.4453 32.5508C22.4453 27.0156 26.9141 22.4961 32.4492 22.4961C37.9844 22.4961 42.5039 26.9648 42.5039 32.5C42.5547 38.0859 38.0351 42.6055 32.5 42.6055Z" fill="black"/>
</g>
</g>
</svg>
