<svg width="28" height="28" viewBox="0 0 28 28" fill="none" xmlns="http://www.w3.org/2000/svg">
<path d="M17.2373 22.125H22.1123H26.9873" stroke="#010212" stroke-width="1.5" stroke-linecap="round" stroke-linejoin="round"/>
<path d="M1 9.775V1.975C1 1.43652 1.43652 1 1.975 1H9.775C10.3135 1 10.75 1.43652 10.75 1.975V9.775C10.75 10.3135 10.3135 10.75 9.775 10.75H1.975C1.43652 10.75 1 10.3135 1 9.775Z" stroke="#010212" stroke-width="1.5"/>
<path d="M1 26.025V18.225C1 17.6865 1.43652 17.25 1.975 17.25H9.775C10.3135 17.25 10.75 17.6865 10.75 18.225V26.025C10.75 26.5635 10.3135 27 9.775 27H1.975C1.43652 27 1 26.5635 1 26.025Z" stroke="#010212" stroke-width="1.5"/>
<path d="M17.25 9.775V1.975C17.25 1.43652 17.6865 1 18.225 1H26.025C26.5635 1 27 1.43652 27 1.975V9.775C27 10.3135 26.5635 10.75 26.025 10.75H18.225C17.6865 10.75 17.25 10.3135 17.25 9.775Z" stroke="#010212" stroke-width="1.5"/>
</svg>
