<svg width="32" height="32" viewBox="0 0 32 32" fill="none" xmlns="http://www.w3.org/2000/svg">
<g id="hex-check-svgrepo-com 1">
<path id="Vector" d="M14.9999 20.3065C14.7347 20.3063 14.4806 20.2008 14.2932 20.0132L11.6265 17.3465C11.5092 17.1517 11.4618 16.9227 11.4921 16.6973C11.5224 16.4719 11.6287 16.2635 11.7933 16.1065C11.958 15.9497 12.1712 15.8536 12.3979 15.8343C12.6245 15.8148 12.8509 15.8732 13.0399 15.9999L14.9466 17.9199L18.9466 13.3865C19.034 13.2885 19.1402 13.2086 19.2586 13.1516C19.377 13.0945 19.5054 13.0613 19.6367 13.0539C19.7679 13.0464 19.8994 13.0649 20.0234 13.1083C20.1475 13.1516 20.2618 13.219 20.3599 13.3066C20.4579 13.3941 20.5378 13.5001 20.5948 13.6185C20.6519 13.7369 20.6852 13.8655 20.6926 13.9967C20.7 14.1279 20.6815 14.2593 20.6382 14.3833C20.5948 14.5075 20.5274 14.6219 20.4399 14.7199L15.7732 20.0532C15.6854 20.1552 15.5771 20.2376 15.4554 20.2951C15.3336 20.3524 15.2011 20.3836 15.0666 20.3865L14.9999 20.3065Z" fill="#FF6915"/>
<path id="Vector_2" d="M15.9999 28.9334C15.8222 28.9347 15.6472 28.8887 15.4932 28.8L5.1599 22.8267C5.00811 22.7391 4.88239 22.6126 4.79569 22.4603C4.70898 22.308 4.66442 22.1352 4.66658 21.96V10.0401C4.66442 9.86479 4.70898 9.69212 4.79569 9.5398C4.88239 9.38748 5.00811 9.261 5.1599 9.17339L15.4932 3.20006C15.646 3.11482 15.8182 3.07007 15.9932 3.07007C16.1683 3.07007 16.3403 3.11482 16.4932 3.20006L26.8266 9.17339C26.9818 9.25817 27.111 9.38366 27.2003 9.53636C27.2895 9.68906 27.3355 9.86319 27.3332 10.0401V21.96C27.3355 22.137 27.2895 22.3111 27.2003 22.4638C27.111 22.6164 26.9818 22.7419 26.8266 22.8267L16.4932 28.8C16.3447 28.8902 16.1736 28.9364 15.9999 28.9334ZM6.66657 21.3334L15.9999 26.6667L25.3332 21.3334V10.6667L15.9999 5.33339L6.66657 10.6667V21.3334Z" fill="#FF6915"/>
</g>
</svg>
