<svg width="80" height="69" viewBox="0 0 80 69" fill="none" xmlns="http://www.w3.org/2000/svg">
<g id="spacecraft-svgrepo-com 1" clip-path="url(#clip0_803_1105)">
<g id="Group">
<g id="Group_2">
<path id="Vector" d="M10.3225 18.0322H23.2259C24.6452 18.0322 25.8065 19.1935 25.8065 20.6128V30.9353C25.8065 32.3546 24.6452 33.5159 23.2259 33.5159H10.3225V18.0322Z" fill="#F9BA48"/>
<path id="Vector_2" d="M69.6777 33.5161H67.0972C65.6779 33.5161 64.5166 32.3549 64.5166 30.9356V20.613C64.5166 19.1937 65.6779 18.0325 67.0972 18.0325H69.6777V33.5161Z" fill="#F9BA48"/>
<path id="Vector_3" d="M76.1293 61.9035H70.2984L62.0366 51.5757C66.9694 51.5214 70.9682 47.4957 70.9682 42.5485V9.00007C70.9682 4.01931 66.9151 -0.032321 61.9358 -0.032321H60.6453V-5.19373H46.4518V-10.3549H43.8713V-5.19345H36.1293V-10.3549H33.5487V-5.19345H19.3549V-0.0320454H18.0645C13.0851 -0.0320454 9.03212 4.01959 9.03212 9.00035V42.5488C9.03212 47.496 13.0309 51.5217 17.9637 51.576L9.70211 61.9035H3.87099C1.72634 61.9035 0 64.0206 0 65.7744V68.355H15.4839V65.7744C15.4839 64.3653 14.3612 62.7409 12.8117 62.1485L21.2658 51.5806H38.7096V61.9032H36.129C33.9844 61.9032 32.258 64.0206 32.258 65.7742V68.3547H47.742V65.7742C47.742 64.0206 46.0156 61.9032 43.871 61.9032H41.2904V51.5806H58.7342L67.1883 62.1485C65.6388 62.7409 64.5161 64.3653 64.5161 65.7744V68.355H80V65.7744C80.0003 64.0206 78.2739 61.9035 76.1293 61.9035ZM45.1614 65.7744H34.8389C34.8389 65.3694 35.4866 64.484 36.1293 64.484H43.8713C44.5137 64.4843 45.1614 65.3694 45.1614 65.7744ZM68.3873 32.226H67.0969C66.3848 32.226 65.8065 31.6466 65.8065 30.9356V20.613C65.8065 19.902 66.3845 19.3226 67.0969 19.3226H68.3873V32.226ZM21.9355 -2.61289H33.5485H46.4518H58.0648V-0.032321H21.9355V-2.61289ZM46.4518 29.6451C42.8945 29.6451 40.0003 26.7509 40.0003 23.1936C40.0003 19.6363 42.8945 16.742 46.4518 16.742C50.0092 16.742 52.9034 19.6363 52.9034 23.1936C52.9034 26.7509 50.0092 29.6451 46.4518 29.6451ZM24.5163 27.0646H11.613V24.484H24.5163V27.0646ZM24.5163 29.6451V30.9356C24.5163 31.6466 23.9383 32.226 23.2259 32.226H11.613V29.6454H24.5163V29.6451ZM24.5163 21.9032H11.613V19.3226H23.2259C23.938 19.3226 24.5163 19.902 24.5163 20.613V21.9032ZM2.58057 65.7744C2.58057 65.3694 3.22825 64.484 3.87099 64.484H11.613C12.2554 64.484 12.9034 65.3691 12.9034 65.7744H2.58057ZM41.2904 49.0001H38.7099H18.0645C14.5072 49.0001 11.613 46.1059 11.613 42.5485V34.8066H23.2259C25.3601 34.8066 27.0969 33.0697 27.0969 30.9356V20.613C27.0969 18.4789 25.3601 16.742 23.2259 16.742H11.613V9.00007C11.613 5.44274 14.5072 2.54852 18.0645 2.54852H19.3549H45.1614V14.2647C40.7923 14.8945 37.4194 18.6532 37.4194 23.1939C37.4194 27.7346 40.7923 31.4932 45.1614 32.123V49.0006H41.2904V49.0001ZM47.7422 32.1227C52.1114 31.4929 55.4842 27.7343 55.4842 23.1936C55.4842 18.6529 52.1114 14.8943 47.7422 14.2645V2.54825H60.6456H61.936C65.4934 2.54825 68.3876 5.44246 68.3876 8.99979V16.7418H67.0972C64.963 16.7418 63.2262 18.4786 63.2262 20.6128V30.9353C63.2262 33.0695 64.963 34.8063 67.0972 34.8063H68.3876V42.5482C68.3876 46.1056 65.4934 48.9998 61.936 48.9998H47.7422V32.1227ZM67.0972 65.7744C67.0972 65.3694 67.7449 64.484 68.3876 64.484H76.1296C76.772 64.484 77.42 65.3691 77.42 65.7744H67.0972Z" fill="#333333"/>
<path id="Vector_4" d="M38.71 5.12903H25.8066V7.70959H38.71V5.12903Z" fill="#333333"/>
<path id="Vector_5" d="M23.2261 5.12903H20.6455V7.70959H23.2261V5.12903Z" fill="#333333"/>
<path id="Vector_6" d="M18.0645 5.12903H15.4839V7.70959H18.0645V5.12903Z" fill="#333333"/>
</g>
</g>
</g>
<defs>
<clipPath id="clip0_803_1105">
<rect width="80" height="80" fill="white" transform="translate(0 -11)"/>
</clipPath>
</defs>
</svg>
