<svg width="66" height="66" viewBox="0 0 66 66" fill="none" xmlns="http://www.w3.org/2000/svg">
<g clip-path="url(#clip0_803_456)">
<path d="M60.7986 2.12902H64.9354V0H60.6773L32.8828 6.38707H10.0544C4.51035 6.38707 0 10.8974 0 16.4415V30.3973C0 35.9413 4.51035 40.4515 10.0544 40.4515H11.7098V62.6147C11.7098 64.4807 13.2288 65.9998 15.0948 65.9998H20.0353C21.9014 65.9998 23.4204 64.4819 23.4204 62.6147V48.9676H27.2377C28.6534 48.9676 29.8063 47.8146 29.8063 46.3978C29.8063 45.7217 29.5318 45.0597 29.0538 44.5805L27.8072 43.334C27.7241 43.2509 27.6773 43.1371 27.6773 43.0211V40.4512H32.8796L60.4389 46.8118L64.9354 46.8383V44.7093H60.7986L34.0644 38.5407V8.29786L60.7986 2.12902ZM10.0544 38.3224C5.68467 38.3224 2.12925 34.767 2.12925 30.3973V16.4415C2.12925 12.0717 5.68467 8.51633 10.0544 8.51633H31.9356V38.3227H23.4195H11.7098H10.0544V38.3224ZM21.2902 62.6147C21.2902 63.3066 20.7271 63.8707 20.0342 63.8707H15.0948C14.4029 63.8707 13.8388 63.3075 13.8388 62.6147V40.4515H21.2902V62.6147ZM26.3009 44.8383L27.5474 46.0848C27.6305 46.1679 27.6773 46.2817 27.6773 46.3978C27.6773 46.6405 27.4793 46.8385 27.2365 46.8385H23.4193V40.4515H25.5483V43.0213C25.5483 43.6971 25.8231 44.3593 26.3009 44.8383Z" fill="#333333"/>
<path d="M24.4839 25.5483C24.4839 24.9201 24.2954 24.3378 23.9804 23.843L26.1776 20.1822C26.3213 20.2013 26.464 20.2258 26.6129 20.2258C28.3736 20.2258 29.8066 18.7931 29.8066 17.0322C29.8066 15.2712 28.3738 13.8385 26.6129 13.8385C24.852 13.8385 23.4193 15.2715 23.4193 17.0322C23.4193 17.872 23.7515 18.6311 24.2827 19.2016L22.2856 22.5304C21.9704 22.425 21.6404 22.3548 21.2903 22.3548C20.4312 22.3548 19.654 22.6998 19.0792 23.2532L16.8959 22.1611C16.9759 21.8822 17.0322 21.5938 17.0322 21.2904C17.0322 19.5298 15.5995 18.0968 13.8386 18.0968C12.0777 18.0968 10.6451 19.5295 10.6451 21.2902C10.6451 21.8916 10.8218 22.4484 11.1125 22.9285L8.52474 26.8109C8.18727 26.6905 7.8296 26.6129 7.45171 26.6129C5.69103 26.6129 4.25806 28.0456 4.25806 29.8063C4.25806 31.567 5.69081 33 7.45171 33C9.21261 33 10.6454 31.5672 10.6454 29.8063C10.6454 29.205 10.4687 28.6481 10.178 28.168L12.7658 24.2858C13.1032 24.4062 13.4609 24.4839 13.8388 24.4839C14.5105 24.4839 15.1332 24.2731 15.6474 23.9175L18.1352 25.162C18.1202 25.2898 18.0968 25.4163 18.0968 25.5485C18.0968 27.3092 19.5296 28.7421 21.2905 28.7421C23.0514 28.7421 24.4839 27.3089 24.4839 25.5483ZM26.6129 15.9678C27.2007 15.9678 27.6776 16.4458 27.6776 17.0324C27.6776 17.619 27.2007 18.097 26.6129 18.097C26.0252 18.097 25.5483 17.619 25.5483 17.0324C25.5483 16.4458 26.0252 15.9678 26.6129 15.9678ZM7.45171 30.8709C6.86398 30.8709 6.38708 30.3929 6.38708 29.8063C6.38708 29.2197 6.86398 28.7419 7.45171 28.7419C8.03943 28.7419 8.51633 29.2199 8.51633 29.8063C8.51611 30.3929 8.0392 30.8709 7.45171 30.8709ZM12.7742 21.2902C12.7742 20.7036 13.2511 20.2256 13.8388 20.2256C14.4265 20.2256 14.9034 20.7036 14.9034 21.2902C14.9034 21.8768 14.4265 22.3548 13.8388 22.3548C13.2511 22.3548 12.7742 21.8768 12.7742 21.2902ZM21.2903 26.6129C20.7025 26.6129 20.2256 26.1348 20.2256 25.5483C20.2256 24.9617 20.7025 24.4836 21.2903 24.4836C21.878 24.4836 22.3549 24.9617 22.3549 25.5483C22.3549 26.1348 21.878 26.6129 21.2903 26.6129Z" fill="#333333"/>
<path d="M65.9999 0H60.6772V46.8385H65.9999V0Z" fill="#F9BA48"/>
</g>
<defs>
<clipPath id="clip0_803_456">
<rect width="66" height="66" fill="white"/>
</clipPath>
</defs>
</svg>
