<svg width="74" height="74" viewBox="0 0 74 74" fill="none" xmlns="http://www.w3.org/2000/svg">
<g id="rocket-svgrepo-com 1" clip-path="url(#clip0_803_1052)">
<g id="Group">
<g id="Group_2">
<path id="Vector" d="M61.5739 74H51.3226V71.6129C51.3226 68.2506 49.7161 65.0378 47.0247 63.0194L48.458 61.1097C51.7462 63.5767 53.7096 67.5035 53.7096 71.6129H60.1678L63.7151 65.2286C64.9768 62.9572 65.6451 60.3815 65.6451 57.782C65.6451 52.6427 63.0921 47.8733 58.8158 45.0219L51.854 40.3801L53.1775 38.394L60.1393 43.0359C65.0817 46.3299 68.0322 51.8431 68.0322 57.782C68.0322 60.7875 67.2611 63.7629 65.8013 66.3886L61.5739 74Z" fill="#333333"/>
<path id="Vector_2" d="M22.6776 74H12.4263L8.19864 66.3876C6.73882 63.7629 5.96777 60.7862 5.96777 57.782C5.96777 51.8429 8.91823 46.3299 13.8596 43.0359L20.8214 38.394L22.145 40.3801L15.1831 45.0219C10.9079 47.872 8.35504 52.6425 8.35504 57.782C8.35504 60.3827 9.02343 62.9572 10.2851 65.2286L13.8323 71.6129H20.2906C20.2906 67.5035 22.254 63.5767 25.5409 61.1097L26.9743 63.0194C24.2841 65.0375 22.6776 68.2506 22.6776 71.6129V74Z" fill="#333333"/>
<path id="Vector_3" d="M33.4182 64.4515H31.0322C25.1086 64.4515 20.2903 59.6331 20.2903 53.7096V33.4194C20.2903 19.4657 26.6471 0 37.0001 0C47.353 0 53.7096 19.4657 53.7096 33.4194V53.7096C53.7096 59.6331 48.8913 64.4515 42.9677 64.4515H40.5807H33.4182Z" fill="#F9BA48"/>
<path id="Vector_4" d="M26.2579 28.645H23.8708V60.8708H26.2579V28.645Z" fill="#333333"/>
<path id="Vector_5" d="M50.1289 28.645H47.7419V60.8708H50.1289V28.645Z" fill="#333333"/>
<path id="Vector_6" d="M38.1933 32.3462V9.54822H35.8063V32.3462C33.0861 32.9012 31.032 35.3109 31.032 38.1933C31.032 41.4838 33.7091 44.161 36.9996 44.161C40.2901 44.161 42.9673 41.4838 42.9673 38.1933C42.9675 35.3121 40.9134 32.9012 38.1933 32.3462ZM36.9999 41.7739C35.0258 41.7739 33.4192 40.1674 33.4192 38.1933C33.4192 36.2192 35.0258 34.6127 36.9999 34.6127C38.974 34.6127 40.5805 36.2192 40.5805 38.1933C40.5805 40.1677 38.974 41.7739 36.9999 41.7739Z" fill="#333333"/>
<path id="Vector_7" d="M38.1935 56.2663V46.5483H35.8065V56.2663C33.7524 56.7997 32.2258 58.6533 32.2258 60.8709V73.9998H41.7741V60.8709C41.7741 58.6533 40.2476 56.7997 38.1935 56.2663ZM39.3871 71.6128H34.6128V60.8709C34.6128 59.5545 35.6834 58.4839 36.9998 58.4839C38.3162 58.4839 39.3868 59.5545 39.3868 60.8709L39.3871 71.6128Z" fill="#333333"/>
<path id="Vector_8" d="M74 1.1936H71.613V33.4193H74V1.1936Z" fill="#333333"/>
<path id="Vector_9" d="M74 35.8064H71.613V38.1934H74V35.8064Z" fill="#333333"/>
<path id="Vector_10" d="M2.38701 5.96765H0V39.387H2.38701V5.96765Z" fill="#333333"/>
<path id="Vector_11" d="M2.38701 41.774H0V44.1611H2.38701V41.774Z" fill="#333333"/>
<path id="Vector_12" d="M10.742 1.1936H8.35498V28.6451H10.742V1.1936Z" fill="#333333"/>
<path id="Vector_13" d="M10.742 31.0322H8.35498V33.4192H10.742V31.0322Z" fill="#333333"/>
<path id="Vector_14" d="M63.2578 3.58069H60.8708V25.0645H63.2578V3.58069Z" fill="#333333"/>
<path id="Vector_15" d="M63.2578 27.4514H60.8708V29.8384H63.2578V27.4514Z" fill="#333333"/>
</g>
</g>
</g>
<defs>
<clipPath id="clip0_803_1052">
<rect width="74" height="74" fill="white"/>
</clipPath>
</defs>
</svg>
