<svg width="65" height="65" viewBox="0 0 65 65" fill="none" xmlns="http://www.w3.org/2000/svg">
<g clip-path="url(#clip0_803_487)">
<path d="M4.91309 52.3809V56.3291C4.91309 57.3066 5.7002 58.1064 6.69043 58.1064H60.7344C61.7119 58.1064 62.5117 57.3193 62.5117 56.3291V52.3809H4.91309Z" fill="#D3D9D9"/>
<path d="M56.4814 58.0938H60.7471C61.7246 58.0938 62.5117 57.3066 62.5117 56.3291V52.3809H58.2588V56.3291C58.2588 57.294 57.459 58.0938 56.4814 58.0938Z" fill="#A8B2B4"/>
<path d="M10.9434 58.0938H6.67773C5.70019 58.0938 4.91309 57.3066 4.91309 56.3291V52.3809H9.16601V56.3291C9.16601 57.294 9.96582 58.0938 10.9434 58.0938Z" fill="#EDEDED"/>
<path d="M62.5132 15.5645V52.3682H4.92725V15.5645C4.92725 14.5869 5.71436 13.7871 6.69189 13.7871H60.7358C61.7134 13.7871 62.5132 14.5869 62.5132 15.5645Z" fill="#D4F0FC"/>
<path d="M42.2881 64.4668H25.1367L28.0186 58.0938H39.4062L42.2881 64.4668Z" fill="white"/>
<path d="M31.7256 55.2372C31.7256 55.6943 31.3574 56.0497 30.9131 56.0497C30.4687 56.0497 30.1006 55.6816 30.1006 55.2372C30.1006 54.7929 30.4687 54.4247 30.9131 54.4247C31.3574 54.4121 31.7256 54.7929 31.7256 55.2372Z" fill="#7C8B8E"/>
<path d="M34.5312 55.2372C34.5312 55.6943 34.1631 56.0497 33.7188 56.0497C33.2744 56.0497 32.9062 55.6816 32.9062 55.2372C32.9062 54.7929 33.2744 54.4247 33.7188 54.4247C34.1631 54.4121 34.5312 54.7929 34.5312 55.2372Z" fill="#7C8B8E"/>
<path d="M37.3369 55.2372C37.3369 55.6943 36.9688 56.0497 36.5244 56.0497C36.0801 56.0497 35.7119 55.6816 35.7119 55.2372C35.7119 54.7929 36.0801 54.4247 36.5244 54.4247C36.9688 54.4121 37.3369 54.7929 37.3369 55.2372Z" fill="#7C8B8E"/>
<path d="M57.1416 7.26184H10.2832V52.381H57.1416V7.26184Z" fill="white"/>
<path d="M57.1416 7.26184H53.8789V52.381H57.1416V7.26184Z" fill="#EDEDED"/>
<path d="M57.1416 1.75195V7.26172H10.2832V1.73926C10.2832 1.04102 10.8418 0.482422 11.54 0.482422H55.8848C56.583 0.482422 57.1416 1.04102 57.1416 1.75195Z" fill="#FBCA1D"/>
<path d="M14.8281 0.482422C14.1299 0.482422 13.5713 1.04102 13.5713 1.73926V7.24902H10.2832V1.73926C10.2832 1.04102 10.8418 0.482422 11.54 0.482422H14.8281Z" fill="#FFE37E"/>
<path d="M57.1416 1.75195V7.26172H53.8662V1.75195C53.8662 1.05371 53.3076 0.482422 52.6094 0.482422H55.8848C56.583 0.482422 57.1416 1.04102 57.1416 1.75195Z" fill="#FFE37E"/>
<path d="M23.7275 31.5749C23.3848 31.5749 23.0293 31.4606 22.7373 31.2321L14.1807 24.5798C13.7871 24.2751 13.5586 23.7927 13.5586 23.2975C13.5586 22.8024 13.7871 22.32 14.1807 22.0153L22.7373 15.363C23.4482 14.8171 24.4639 14.944 25.0225 15.6423C25.5684 16.3532 25.4414 17.3688 24.7432 17.9274L17.8369 23.2975L24.7432 28.6677C25.4541 29.2136 25.5811 30.2419 25.0225 30.9528C24.6924 31.3591 24.2227 31.5749 23.7275 31.5749Z" fill="#7BDE9E"/>
<path d="M43.6972 31.5733C43.2148 31.5733 42.7324 31.3575 42.415 30.9512C41.8691 30.2403 41.996 29.2247 42.6943 28.6661L49.6005 23.2959L42.6943 17.9258C41.9833 17.3799 41.8564 16.3516 42.415 15.6407C42.9609 14.9297 43.9892 14.8028 44.7001 15.3614L53.2568 22.0137C53.6503 22.3184 53.8788 22.8008 53.8788 23.2959C53.8788 23.7911 53.6503 24.2735 53.2568 24.5782L44.6874 31.2305C44.3954 31.459 44.04 31.5733 43.6972 31.5733Z" fill="#7BDE9E"/>
<path d="M30.0117 31.5732C29.7451 31.5732 29.4785 31.5098 29.2246 31.3701C28.4375 30.9385 28.1582 29.9482 28.5898 29.1611L35.9912 15.8438C36.4229 15.0566 37.4131 14.7773 38.2002 15.209C38.9873 15.6406 39.2666 16.6309 38.835 17.418L31.4336 30.7354C31.1416 31.2686 30.583 31.5732 30.0117 31.5732Z" fill="#7BDE9E"/>
<path d="M23.7275 31.5749C23.3848 31.5749 23.0293 31.4606 22.7373 31.2321L14.1807 24.5798C13.7871 24.2751 13.5586 23.7927 13.5586 23.2975C13.5586 22.8024 13.7871 22.32 14.1807 22.0153L22.7373 15.363C23.4482 14.8171 24.4639 14.944 25.0225 15.6423C25.5684 16.3532 25.4414 17.3688 24.7432 17.9274L17.8369 23.2975L24.7432 28.6677C25.4541 29.2136 25.5811 30.2419 25.0225 30.9528C24.6924 31.3591 24.2227 31.5749 23.7275 31.5749Z" fill="#7BDE9E"/>
<path d="M43.6972 31.5733C43.2148 31.5733 42.7324 31.3575 42.415 30.9512C41.8691 30.2403 41.996 29.2247 42.6943 28.6661L49.6005 23.2959L42.6943 17.9258C41.9833 17.3799 41.8564 16.3516 42.415 15.6407C42.9609 14.9297 43.9892 14.8028 44.7001 15.3614L53.2568 22.0137C53.6503 22.3184 53.8788 22.8008 53.8788 23.2959C53.8788 23.7911 53.6503 24.2735 53.2568 24.5782L44.6874 31.2305C44.3954 31.459 44.04 31.5733 43.6972 31.5733Z" fill="#7BDE9E"/>
<path d="M30.0117 31.5732C29.7451 31.5732 29.4785 31.5098 29.2246 31.3701C28.4375 30.9385 28.1582 29.9482 28.5898 29.1611L35.9912 15.8438C36.4229 15.0566 37.4131 14.7773 38.2002 15.209C38.9873 15.6406 39.2666 16.6309 38.835 17.418L31.4336 30.7354C31.1416 31.2686 30.583 31.5732 30.0117 31.5732Z" fill="#7BDE9E"/>
<path d="M25.0352 17.6085C25.0352 17.5958 25.0225 17.5958 25.0225 17.5831C24.4766 16.8721 23.4482 16.7452 22.7373 17.2911L14.1807 23.9434C14.0664 24.0323 13.9648 24.1466 13.876 24.2608C13.6729 23.9815 13.5459 23.6387 13.5459 23.2833C13.5459 22.7882 13.7744 22.3184 14.168 22.001L22.7246 15.3487C23.4356 14.7901 24.4512 14.9298 25.0098 15.628C25.4795 16.2247 25.4668 17.0372 25.0352 17.6085Z" fill="#A7E9BF"/>
<path d="M53.8789 23.2832C53.8789 23.6387 53.7646 23.9815 53.5488 24.2608C53.46 24.1465 53.3584 24.0323 53.2441 23.9434L44.6875 17.2911C43.9766 16.7452 42.9609 16.8721 42.4023 17.5831C42.4023 17.5958 42.3896 17.5958 42.3896 17.6084C41.958 17.0372 41.9453 16.2374 42.4023 15.6407C42.9482 14.9297 43.9766 14.8028 44.6875 15.3614L53.2441 22.0137C53.6504 22.3184 53.8789 22.7881 53.8789 23.2832Z" fill="#A7E9BF"/>
<path d="M30.0117 31.5734C29.7451 31.5734 29.4785 31.5099 29.2246 31.3702C28.4375 30.9386 28.1582 29.9484 28.5898 29.1613L35.9912 15.8439C36.4229 15.0568 37.4131 14.7775 38.2002 15.2091C38.9873 15.6407 39.2666 16.631 38.835 17.4181L31.4336 30.7355C31.1416 31.2687 30.583 31.5734 30.0117 31.5734Z" fill="#7BDE9E"/>
<path d="M38.2002 15.2091C37.4131 14.7775 36.4229 15.0568 35.9912 15.8439L34.8867 17.8243C34.9248 17.8624 34.9502 17.9132 34.9883 17.9513L35.0771 17.7863C35.5088 16.9992 36.499 16.7199 37.2861 17.1515C37.8574 17.4689 38.1621 18.0783 38.124 18.6876L38.835 17.4181C39.2666 16.6437 38.9873 15.6534 38.2002 15.2091Z" fill="#A7E9BF"/>
<path d="M29.2246 31.3575C30.0117 31.7892 31.002 31.5099 31.4336 30.7228L32.5381 28.7423C32.5 28.7042 32.4746 28.6534 32.4365 28.6154L32.3477 28.7804C31.916 29.5675 30.9258 29.8468 30.1387 29.4152C29.5674 29.0978 29.2627 28.4884 29.3008 27.879L28.5898 29.1486C28.1582 29.9357 28.4375 30.9259 29.2246 31.3575Z" fill="#50D27E"/>
<path d="M25.0225 30.9385C24.7051 31.3447 24.2227 31.5605 23.7402 31.5605C23.3975 31.5605 23.042 31.4463 22.75 31.2178L14.1934 24.5654C13.7998 24.2607 13.5713 23.791 13.5713 23.2832C13.5713 22.9277 13.6855 22.5977 13.9014 22.3184C13.9902 22.4326 14.0918 22.5342 14.2061 22.623L22.7627 29.2754C23.0547 29.5039 23.4102 29.6182 23.7529 29.6182C24.2354 29.6182 24.7178 29.4023 25.0352 28.9834C25.0352 28.9707 25.0479 28.9707 25.0479 28.958C25.4668 29.542 25.4795 30.3545 25.0225 30.9385Z" fill="#50D27E"/>
<path d="M53.8789 23.2959C53.8789 23.8037 53.6504 24.2734 53.2441 24.5781L44.7002 31.2305C44.3955 31.459 44.0527 31.5732 43.71 31.5732C43.2275 31.5732 42.7451 31.3574 42.4277 30.9512C41.9707 30.3545 41.9834 29.5547 42.415 28.9834C42.415 28.9961 42.4277 28.9961 42.4277 29.0088C42.7451 29.415 43.2275 29.6436 43.71 29.6436C44.0527 29.6436 44.4082 29.5293 44.7002 29.3008L53.2568 22.6484C53.3711 22.5596 53.4726 22.458 53.5615 22.3438C53.7646 22.5977 53.8789 22.9404 53.8789 23.2959Z" fill="#50D27E"/>
<path d="M63.0195 15.5645C63.0195 14.3076 61.9912 13.2793 60.7344 13.2793H57.6494V7.26172V1.75195C57.6494 0.774414 56.8623 -0.0253906 55.8848 -0.0253906H11.54C10.5752 -0.0253906 9.77539 0.774414 9.77539 1.73926V7.24902V13.2793H6.69043C5.43359 13.2793 4.41797 14.3076 4.41797 15.5645C4.41797 22.3184 4.41797 47.6963 4.41797 56.3164C4.41797 57.5732 5.44629 58.6016 6.70313 58.6016H27.2441L24.8193 63.959H23.3467C23.0674 63.959 22.8389 64.1875 22.8389 64.4668C22.8389 64.7461 23.0674 64.9746 23.3467 64.9746C27.3203 64.9746 40.1172 64.9746 44.0908 64.9746C44.3701 64.9746 44.5986 64.7461 44.5986 64.4668C44.5986 64.1875 44.3701 63.959 44.0908 63.959H42.6182L40.1934 58.6016H60.7344C61.9912 58.6016 63.0195 57.5732 63.0195 56.3164C63.0195 47.7852 63.0195 22.3184 63.0195 15.5645ZM56.6338 51.8731H10.791V7.76953H56.6338V51.8731ZM60.7344 14.2949C61.4199 14.2949 62.0039 14.8789 62.0039 15.5645V51.8604H57.6494V14.2949H60.7344ZM10.791 1.73926C10.791 1.32031 11.1338 0.990234 11.54 0.990234H55.8848C56.3037 0.990234 56.6338 1.33301 56.6338 1.75195V6.75391H10.791V1.73926ZM5.4209 15.5645C5.4209 14.8662 5.97949 14.2949 6.67773 14.2949H9.77539V51.8604H5.4209V15.5645ZM41.501 63.959H25.9238L28.3486 58.6016H39.0762L41.501 63.959ZM62.0039 56.3164C62.0039 57.0147 61.4326 57.5859 60.7344 57.5859C3.96094 57.5732 63.7686 57.5859 6.69043 57.5859C5.99219 57.5859 5.4209 57.0147 5.4209 56.3164V52.876C17.3418 52.876 -5.48437 52.876 62.0039 52.876V56.3164Z" fill="#333333"/>
<path d="M14.8789 3.36426H14.0283C13.749 3.36426 13.5205 3.59277 13.5205 3.87207C13.5205 4.15137 13.749 4.37988 14.0283 4.37988H14.8789C15.1582 4.37988 15.3867 4.15137 15.3867 3.87207C15.3867 3.59277 15.1582 3.36426 14.8789 3.36426Z" fill="#333333"/>
<path d="M19.0049 3.36426H18.1543C17.875 3.36426 17.6465 3.59277 17.6465 3.87207C17.6465 4.15137 17.875 4.37988 18.1543 4.37988H19.0049C19.2842 4.37988 19.5127 4.15137 19.5127 3.87207C19.5127 3.59277 19.2842 3.36426 19.0049 3.36426Z" fill="#333333"/>
<path d="M23.1182 3.36426H22.2676C21.9883 3.36426 21.7598 3.59277 21.7598 3.87207C21.7598 4.15137 21.9883 4.37988 22.2676 4.37988H23.1182C23.3975 4.37988 23.626 4.15137 23.626 3.87207C23.626 3.59277 23.3975 3.36426 23.1182 3.36426Z" fill="#333333"/>
<path d="M53.3965 3.36426H30.1514C29.8721 3.36426 29.6436 3.59277 29.6436 3.87207C29.6436 4.15137 29.8721 4.37988 30.1514 4.37988H53.3965C53.6758 4.37988 53.9043 4.15137 53.9043 3.87207C53.9043 3.59277 53.6758 3.36426 53.3965 3.36426Z" fill="#333333"/>
<path d="M13.8633 24.9717L22.4199 31.624C23.334 32.335 24.6797 32.1953 25.416 31.2558C26.1397 30.3291 25.9746 28.9961 25.0479 28.2598L18.6494 23.2832L25.0479 18.3066C25.9746 17.583 26.1523 16.25 25.416 15.3105C24.6924 14.3838 23.3594 14.206 22.4199 14.9424L13.8633 21.5947C13.3428 22.001 13.0381 22.6103 13.0381 23.2832C13.0381 23.956 13.3428 24.5654 13.8633 24.9717ZM14.4854 22.4072L23.042 15.7549C23.5244 15.374 24.2354 15.4629 24.6035 15.9453C24.9844 16.4404 24.8955 17.1387 24.4131 17.5068L17.5068 22.8769C17.3799 22.9785 17.3164 23.1182 17.3164 23.2832C17.3164 23.4482 17.3926 23.5879 17.5068 23.6894L24.4131 29.0596C24.8955 29.4404 24.9844 30.1387 24.6035 30.6211C24.2354 31.0908 23.5117 31.1797 23.042 30.8115L14.4854 24.1592C14.2061 23.9433 14.0537 23.626 14.0537 23.2832C14.0537 22.9404 14.2188 22.623 14.4854 22.4072Z" fill="#333333"/>
<path d="M42.3896 18.3194L48.7881 23.2959L42.3896 28.2725C41.4629 28.9961 41.2978 30.3418 42.0215 31.2686C42.7451 32.208 44.0908 32.3604 45.0175 31.6367L53.5742 24.9844C54.666 24.1338 54.6787 22.4707 53.5742 21.6201L45.0175 14.9678C44.0781 14.2315 42.7451 14.4219 42.0215 15.336C41.2978 16.25 41.4629 17.5957 42.3896 18.3194ZM42.8213 15.9453C43.1894 15.4629 43.9004 15.3614 44.3828 15.7549L52.9394 22.4073C53.5107 22.8516 53.5107 23.7276 52.9394 24.1719L44.3828 30.8242C43.9131 31.1924 43.1767 31.1035 42.8213 30.6338C42.4404 30.1514 42.5293 29.4405 43.0117 29.0723L49.9179 23.7022C50.0449 23.6006 50.1084 23.461 50.1084 23.2959C50.1084 23.1309 50.0322 22.9912 49.9179 22.8897L43.0117 17.5196C42.5293 17.1387 42.4404 16.4278 42.8213 15.9453Z" fill="#333333"/>
<path d="M28.9707 31.8018C30.0244 32.3858 31.3066 31.9796 31.8652 30.9766L39.2665 17.6593C39.8378 16.6309 39.4697 15.336 38.4414 14.7647C37.4003 14.1934 36.1054 14.5616 35.5468 15.5899L28.1455 28.9073C27.5742 29.9356 27.9423 31.2305 28.9707 31.8018ZM29.0341 29.4024L36.4355 16.085C36.7402 15.5391 37.413 15.3487 37.9589 15.6534C38.4921 15.9581 38.6953 16.6309 38.3906 17.1768L30.9892 30.4942C30.6972 31.0147 29.999 31.2178 29.4658 30.9259C28.9326 30.6212 28.7421 29.9356 29.0341 29.4024Z" fill="#333333"/>
<path d="M49.8164 46.668H17.6084C17.3291 46.668 17.1006 46.8965 17.1006 47.1758C17.1006 47.4551 17.3291 47.6836 17.6084 47.6836H49.8164C50.0957 47.6836 50.3242 47.4551 50.3242 47.1758C50.3242 46.8965 50.0957 46.668 49.8164 46.668Z" fill="#333333"/>
<path d="M46.1982 37.2734C46.4775 37.2734 46.706 37.0449 46.706 36.7656C46.706 36.4863 46.4775 36.2578 46.1982 36.2578H21.2266C20.9473 36.2578 20.7188 36.4863 20.7188 36.7656C20.7188 37.0449 20.9473 37.2734 21.2266 37.2734H46.1982Z" fill="#333333"/>
<path d="M52.3047 41.4629H15.1328C14.8535 41.4629 14.625 41.6914 14.625 41.9707C14.625 42.25 14.8535 42.4785 15.1328 42.4785H52.3047C52.584 42.4785 52.8125 42.25 52.8125 41.9707C52.8125 41.6914 52.584 41.4629 52.3047 41.4629Z" fill="#333333"/>
</g>
<defs>
<clipPath id="clip0_803_487">
<rect width="65" height="65" fill="white"/>
</clipPath>
</defs>
</svg>
