<svg width="78" height="78" viewBox="0 0 78 78" fill="none" xmlns="http://www.w3.org/2000/svg">
<g id="vector-graphic-design-svgrepo-com 1" clip-path="url(#clip0_803_2521)">
<path id="Vector" d="M40.6261 63.3747C40.6261 64.2745 39.8977 65.0006 39.0004 65.0006C38.103 65.0006 37.377 64.2745 37.377 63.3747C37.377 62.4774 38.103 61.7515 39.0004 61.7515C39.8977 61.7515 40.6261 62.4774 40.6261 63.3747Z" fill="black"/>
<path id="Vector_2" d="M32.5017 77.9997H45.5676L52.0016 58.4999L39.0002 45.5007L26.001 58.4999L32.5017 77.9997Z" fill="#FFCE54"/>
<path id="Vector_3" d="M47.1263 74.7505H40.6256V63.3747C40.6256 62.4774 39.8972 61.7515 38.9999 61.7515C38.1025 61.7515 37.3765 62.4775 37.3765 63.3747V74.7505H30.8757C29.9784 74.7505 29.25 75.4789 29.25 76.3762C29.25 77.2737 29.9784 77.9997 30.8757 77.9997H47.1263C48.0238 77.9997 48.7496 77.2736 48.7496 76.3762C48.7496 75.4789 48.0238 74.7505 47.1263 74.7505Z" fill="#F6BB42"/>
<path id="Vector_4" d="M71.033 39H8.12695V42.2516H71.033V39Z" fill="#434A54"/>
<g id="Group">
<path id="Vector_5" d="M73.125 45.5008C75.8174 45.5008 78 43.3182 78 40.6258C78 37.9334 75.8174 35.7507 73.125 35.7507C70.4326 35.7507 68.25 37.9334 68.25 40.6258C68.25 43.3182 70.4326 45.5008 73.125 45.5008Z" fill="#656D78"/>
<path id="Vector_6" d="M4.87502 45.5008C7.56742 45.5008 9.75004 43.3182 9.75004 40.6258C9.75004 37.9334 7.56742 35.7507 4.87502 35.7507C2.18262 35.7507 0 37.9334 0 40.6258C0 43.3182 2.18262 45.5008 4.87502 45.5008Z" fill="#656D78"/>
</g>
<path id="Vector_7" d="M71.1397 0.000244141C71.3802 1.60463 71.5016 3.23035 71.5016 4.87526C71.5016 9.26466 70.6422 13.5207 68.9474 17.5267C67.3121 21.3948 64.9675 24.8726 61.9824 27.8575C58.9952 30.8426 55.5198 33.1872 51.6494 34.8224C47.6457 36.5173 43.3896 37.3765 39.0002 37.3765C34.6108 37.3765 30.3548 36.5173 26.351 34.8224C22.4806 33.187 19.0052 30.8424 16.0203 27.8575C13.0354 24.8726 10.6907 21.3948 9.05297 17.5267C7.36051 13.5207 6.50125 9.2645 6.50125 4.87526C6.50125 3.23035 6.62255 1.60463 6.86315 0.000244141H3.58048C3.3638 1.59518 3.25195 3.22319 3.25195 4.87526C3.25195 24.6202 19.2575 40.6258 39.0002 40.6258C58.7453 40.6258 74.7507 24.6202 74.7507 4.87526C74.7507 3.22319 74.6365 1.59518 74.4199 0.000244141H71.1397Z" fill="#CCD1D9"/>
<g id="Group_2">
<path id="Vector_8" d="M9.75086 0.000732422H0.000976562V9.75062H9.75086V0.000732422Z" fill="#E6E9ED"/>
<path id="Vector_9" d="M77.9991 0.000244141H68.249V9.75013H77.9991V0.000244141Z" fill="#E6E9ED"/>
<path id="Vector_10" d="M43.8749 35.7512H34.125V45.5011H43.8749V35.7512Z" fill="#E6E9ED"/>
</g>
</g>
<defs>
<clipPath id="clip0_803_2521">
<rect width="78" height="78" fill="white"/>
</clipPath>
</defs>
</svg>
