<svg width="77" height="77" viewBox="0 0 77 77" fill="none" xmlns="http://www.w3.org/2000/svg">
<path d="M65.7904 0H11.2099C9.13723 0 7.4519 1.68532 7.4519 3.758V38.4665C7.4519 40.5405 9.13723 42.2258 11.2099 42.2258H21.1131V39.7419V32.2903C21.1131 29.5468 23.3373 27.3226 26.0808 27.3226C28.8243 27.3226 31.0486 29.5468 31.0486 32.2903V39.7419V42.2258H65.7904C67.8631 42.2258 69.5484 40.5405 69.5484 38.4678V3.758C69.5487 1.68532 67.8634 0 65.7904 0ZM22.3551 21.113C18.9262 21.113 16.1453 18.3324 16.1453 14.9032C16.1453 11.474 18.9259 8.69342 22.3551 8.69342C25.7843 8.69342 28.5649 11.474 28.5649 14.9032C28.5649 18.3324 25.7841 21.113 22.3551 21.113Z" fill="#FDE285"/>
<path d="M22.3552 22.3549C18.2456 22.3549 14.9036 19.0129 14.9036 14.9033C14.9036 10.7937 18.2456 7.45166 22.3552 7.45166C26.4648 7.45166 29.8068 10.7937 29.8068 14.9033C29.8068 19.0129 26.4648 22.3549 22.3552 22.3549ZM22.3552 9.93553C19.6154 9.93553 17.3874 12.1635 17.3874 14.9033C17.3874 17.6431 19.6154 19.871 22.3552 19.871C25.095 19.871 27.3229 17.6431 27.3229 14.9033C27.3229 12.1635 25.095 9.93553 22.3552 9.93553Z" fill="#333333"/>
<path d="M62.0971 7.45166H34.7745V9.93553H62.0971V7.45166Z" fill="#333333"/>
<path d="M62.0971 13.6615H34.7745V16.1454H62.0971V13.6615Z" fill="#333333"/>
<path d="M62.0971 19.871H34.7745V22.3548H62.0971V19.871Z" fill="#333333"/>
<path d="M62.097 26.0808H42.2261V28.5647H62.097V26.0808Z" fill="#333333"/>
<path d="M39.1212 76.9999C28.5063 76.9999 19.8712 68.3648 19.8712 57.75V32.2903C19.8712 28.8664 22.6569 26.0804 26.081 26.0804C29.5052 26.0804 32.2908 28.8661 32.2908 32.2903V43.4678H33.5329C38.3255 43.4678 42.2266 47.3686 42.2266 52.1615C42.2266 56.9544 38.3258 60.8552 33.5329 60.8552V58.3713C36.9568 58.3713 39.7427 55.5857 39.7427 52.1615C39.7427 48.7373 36.9571 45.9517 33.5329 45.9517H29.8067V32.2903C29.8067 30.2361 28.1352 28.5643 26.0808 28.5643C24.0264 28.5643 22.3548 30.2359 22.3548 32.2903V57.75C22.3548 66.995 29.8759 74.5161 39.1209 74.5161C48.3659 74.5161 55.887 66.995 55.887 57.75V42.2257H58.3708V57.75C58.3714 68.3648 49.736 76.9999 39.1212 76.9999Z" fill="#333333"/>
</svg>
