<svg width="77" height="77" viewBox="0 0 77 77" fill="none" xmlns="http://www.w3.org/2000/svg">
<g id="update-content-svgrepo-com 1">
<path id="Vector" d="M63.5063 1.53394H13.4932V75.4663H63.5063V1.53394Z" fill="#FFE6B8"/>
<g id="Group">
<path id="Vector_2" d="M38.1118 48.5179L45.5832 52.8321C46.8663 53.573 46.8663 55.425 45.5832 56.1659L38.1118 60.4801C36.8285 61.2211 35.2246 60.295 35.2246 58.8133V50.1847C35.2246 48.703 36.8287 47.7769 38.1118 48.5179Z" fill="#BCC987"/>
<path id="Vector_3" d="M53.1525 30.2631L45.6811 25.9488C44.398 25.208 44.398 23.3559 45.6811 22.6151L53.1525 18.3008C54.4358 17.5599 56.0397 18.486 56.0397 19.9676V28.5963C56.0397 30.0779 54.4356 31.004 53.1525 30.2631Z" fill="#BCC987"/>
</g>
<g id="Group_2">
<path id="Vector_4" d="M65.3515 22.7481H65.0404V1.53383C65.0402 0.686684 64.3534 0 63.5064 0H13.4934C12.6464 0 11.9595 0.686684 11.9595 1.53383V37.9333H11.6484C6.65843 37.9333 2.59863 41.993 2.59863 46.9831C2.59863 51.9732 6.65843 56.0328 11.6484 56.0328H11.9595V75.466C11.9595 76.3132 12.6464 76.9998 13.4934 76.9998H63.5064C64.3534 76.9998 65.0402 76.3132 65.0402 75.466V40.8476H65.3514C70.3413 40.8476 74.4011 36.788 74.4011 31.7978C74.4011 26.8077 70.3415 22.7481 65.3515 22.7481ZM11.6481 52.9653C8.34957 52.9653 5.666 50.2819 5.666 46.9832C5.666 43.6847 8.34957 41.0011 11.6481 41.0011H11.9592V52.9653H11.6481ZM15.0272 73.9323V56.033H33.6908V58.8134C33.6908 60.0638 34.3374 61.1836 35.4202 61.8087C35.9616 62.1214 36.5555 62.2777 37.1495 62.2777C37.7436 62.2777 38.3376 62.1214 38.8792 61.8086L46.3503 57.4945C47.4332 56.8693 48.0795 55.7495 48.0795 54.4993C48.0795 53.2491 47.4331 52.1293 46.3504 51.5041L38.8792 47.1899H38.879C37.7959 46.5645 36.5028 46.5645 35.4202 47.1899C34.3372 47.815 33.6908 48.9347 33.6908 50.1851V52.9655H15.0274V3.06767H61.9727V22.7481H57.5739V19.9677C57.5739 18.7173 56.9274 17.5975 55.8446 16.9725C54.7616 16.3473 53.4687 16.3472 52.3856 16.9726L44.9145 21.2867C43.8315 21.9119 43.1853 23.0317 43.1853 24.2819C43.1853 25.5321 43.8317 26.6519 44.9143 27.2769L52.3856 31.5912H52.3857C52.9272 31.904 53.521 32.0601 54.1152 32.0601C54.7091 32.0601 55.303 31.9039 55.8446 31.5912C56.9275 30.966 57.5739 29.8462 57.5739 28.5959V25.8155H61.9726V73.9322H15.0272V73.9323ZM37.345 49.8464L44.8164 54.1606C44.978 54.2539 45.0117 54.3963 45.0117 54.4992C45.0117 54.602 44.9778 54.7444 44.8163 54.8377L37.3452 59.1518C37.1835 59.2453 37.043 59.2034 36.954 59.1518C36.8648 59.1004 36.7587 58.9997 36.7587 58.8133V50.1846C36.7587 49.9981 36.865 49.8977 36.954 49.8461C37.0047 49.8167 37.0718 49.7907 37.1498 49.7907C37.2094 49.7909 37.2751 49.8059 37.345 49.8464ZM54.5061 19.9677V28.5963C54.5061 28.7828 54.3998 28.8834 54.3107 28.9349C54.2216 28.9863 54.0811 29.0281 53.9197 28.9349L46.4483 24.6206C46.2868 24.5274 46.2531 24.3849 46.2531 24.2821C46.2531 24.1792 46.287 24.0368 46.4485 23.9434L53.9196 19.6293C54.0813 19.536 54.2214 19.5777 54.3107 19.6293C54.3996 19.6807 54.5061 19.7812 54.5061 19.9677ZM65.3515 37.7799H65.0404V25.8158H65.3515C68.65 25.8158 71.3336 28.4993 71.3336 31.7978C71.3336 35.0964 68.6499 37.7799 65.3515 37.7799Z" fill="#4D3D36"/>
<path id="Vector_5" d="M53.6852 12.4244H54.7588C55.6058 12.4244 56.2927 11.7377 56.2927 10.8905C56.2927 10.0434 55.6058 9.35669 54.7588 9.35669H53.6852C52.8382 9.35669 52.1514 10.0434 52.1514 10.8905C52.1514 11.7377 52.8382 12.4244 53.6852 12.4244Z" fill="#4D3D36"/>
<path id="Vector_6" d="M22.2409 12.4244H47.7031C48.5501 12.4244 49.2369 11.7377 49.2369 10.8905C49.2369 10.0434 48.5501 9.35669 47.7031 9.35669H22.2409C21.3939 9.35669 20.707 10.0434 20.707 10.8905C20.707 11.7377 21.3939 12.4244 22.2409 12.4244Z" fill="#4D3D36"/>
<path id="Vector_7" d="M42.948 36.0457H22.2409C21.3939 36.0457 20.707 36.7323 20.707 37.5795C20.707 38.4266 21.3939 39.1133 22.2409 39.1133H42.948C43.795 39.1133 44.4818 38.4266 44.4818 37.5795C44.4818 36.7323 43.795 36.0457 42.948 36.0457Z" fill="#4D3D36"/>
<path id="Vector_8" d="M22.2409 21.6275H36.0457C36.8927 21.6275 37.5795 20.9408 37.5795 20.0936C37.5795 19.2465 36.8927 18.5598 36.0457 18.5598H22.2409C21.3939 18.5598 20.707 19.2465 20.707 20.0936C20.707 20.9408 21.3939 21.6275 22.2409 21.6275Z" fill="#4D3D36"/>
<path id="Vector_9" d="M22.2409 29.9102H36.0457C36.8927 29.9102 37.5795 29.2235 37.5795 28.3764C37.5795 27.5292 36.8927 26.8425 36.0457 26.8425H22.2409C21.3939 26.8425 20.707 27.5292 20.707 28.3764C20.707 29.2235 21.3939 29.9102 22.2409 29.9102Z" fill="#4D3D36"/>
</g>
</g>
</svg>
