<svg width="80" height="80" viewBox="0 0 80 80" fill="none" xmlns="http://www.w3.org/2000/svg">
<g id="Icon">
<g id="Group">
<g id="Group_2">
<g id="Group_3">
<g id="Group_4">
<path id="Vector" d="M55.4836 37.4194H24.5156V40.0001H55.4836V37.4194Z" fill="#F9BA48"/>
</g>
</g>
<g id="Group_5">
<g id="Group_6">
<path id="Vector_2" d="M55.4836 43.8711H24.5156V46.4518H55.4836V43.8711Z" fill="#F9BA48"/>
</g>
</g>
<g id="Group_7">
<g id="Group_8">
<path id="Vector_3" d="M55.4836 50.3228H24.5156V52.9035H55.4836V50.3228Z" fill="#F9BA48"/>
</g>
</g>
<g id="Group_9">
<path id="Vector_4" d="M80.0003 12.9033V10.9677C80.0003 5.13811 75.4236 0.369059 69.6777 0.0322453V0H30.3228C24.275 0 19.355 4.91998 19.355 10.9677V59.3549H0V61.2904C0 67.3382 4.91998 72.2581 10.9677 72.2581H49.6775C50.1433 72.2581 50.6067 72.218 51.0673 72.1601C53.7358 76.8348 58.759 80 64.5163 80C73.0545 80 80.0003 73.0543 80.0003 64.516C80.0003 58.4 76.4828 52.9714 70.9681 50.45V37.4192H73.5488V34.8385H70.9681H60.6455V12.9033H80.0003ZM77.3952 10.3226H60.6686C61.0002 5.99735 64.6233 2.58071 69.0312 2.58071C73.439 2.58071 77.0649 5.99735 77.3952 10.3226ZM10.9677 69.6777C6.55988 69.6777 2.9354 66.2608 2.60509 61.9359H38.729C38.9098 65.0352 40.3833 67.7939 42.618 69.6777H10.9677ZM64.5163 77.4196C57.4015 77.4196 51.613 71.6311 51.613 64.5163C51.613 63.1745 51.8168 61.8738 52.2002 60.6452H62.0532C62.6699 64.3006 65.8495 67.097 69.6791 67.097C73.1719 67.097 76.1295 64.7705 77.0895 61.5874C77.3063 62.532 77.4198 63.5126 77.4198 64.5166C77.4196 71.6311 71.6311 77.4196 64.5163 77.4196ZM64.6995 60.6455H74.6557C74.0788 62.8647 72.0763 64.5166 69.6777 64.5166C67.2791 64.5166 65.2764 62.8647 64.6995 60.6455ZM69.2081 52.5059C72.0224 53.6066 74.2739 55.5871 75.7035 58.0645H53.3304C54.7587 55.5884 57.0118 53.6076 59.8258 52.5059L60.6452 52.1859V37.4194H68.3871V52.1859L69.2081 52.5059ZM55.4841 34.8387V37.4194H58.0648V50.4503C52.5501 52.9717 49.0326 58.4 49.0326 64.5163C49.0326 66.3229 49.3605 68.0519 49.9306 69.6647C49.8455 69.6674 49.7615 69.6777 49.6778 69.6777C45.0532 69.6777 41.2908 65.915 41.2908 61.2907V59.3552H21.9355V10.9677C21.9355 6.34311 25.6981 2.58071 30.3225 2.58071H61.9795C59.5885 4.59373 58.0645 7.60528 58.0645 10.9677V34.8387H55.4841Z" fill="#333333"/>
<path id="Vector_5" d="M60.6455 67.0969C58.5113 67.0969 56.7744 68.8338 56.7744 70.968C56.7744 73.1021 58.5111 74.839 60.6455 74.839C62.7799 74.839 64.5165 73.1021 64.5165 70.968C64.5165 68.8338 62.7799 67.0969 60.6455 67.0969ZM60.6455 72.2583C59.9331 72.2583 59.3551 71.679 59.3551 70.968C59.3551 70.257 59.9331 69.6776 60.6455 69.6776C61.3579 69.6776 61.9358 70.257 61.9358 70.968C61.9358 71.679 61.3579 72.2583 60.6455 72.2583Z" fill="#333333"/>
<path id="Vector_6" d="M51.6128 10.3225C49.4786 10.3225 47.7417 12.0594 47.7417 14.1936C47.7417 15.2116 48.1444 16.1315 48.7882 16.8233L46.3676 20.858C45.9858 20.7304 45.5856 20.6451 45.1613 20.6451C44.1199 20.6451 43.1781 21.0632 42.4814 21.7341L39.8348 20.4101C39.9316 20.072 39.9999 19.7224 39.9999 19.3547C39.9999 17.2206 38.2632 15.4837 36.1288 15.4837C33.9944 15.4837 32.2577 17.2206 32.2577 19.3547C32.2577 20.0836 32.4718 20.7586 32.8241 21.3406L29.6873 26.0466C29.2782 25.9008 28.8446 25.8065 28.3867 25.8065C26.2525 25.8065 24.5156 27.5434 24.5156 29.6775C24.5156 31.8117 26.2523 33.5486 28.3867 33.5486C30.5211 33.5486 32.2577 31.8117 32.2577 29.6775C32.2577 28.9486 32.0437 28.2736 31.6914 27.6916L34.8282 22.9857C35.2373 23.1315 35.6709 23.2258 36.1288 23.2258C36.9431 23.2258 37.6977 22.9702 38.3209 22.5394L41.3366 24.0479C41.3184 24.2026 41.2902 24.3563 41.2902 24.5164C41.2902 26.6505 43.0269 28.3875 45.1613 28.3875C47.2957 28.3875 49.0323 26.6505 49.0323 24.5164C49.0323 23.755 48.8039 23.0494 48.4221 22.4492L51.0855 18.0118C51.2597 18.0351 51.4326 18.0646 51.6133 18.0646C53.7475 18.0646 55.4844 16.3277 55.4844 14.1936C55.4844 12.0594 53.7469 10.3225 51.6128 10.3225ZM28.387 30.9679C27.6746 30.9679 27.0966 30.3886 27.0966 29.6775C27.0966 28.9665 27.6746 28.3872 28.387 28.3872C29.0993 28.3872 29.6773 28.9665 29.6773 29.6775C29.6773 30.3886 29.0993 30.9679 28.387 30.9679ZM34.8385 19.355C34.8385 18.644 35.4164 18.0646 36.1288 18.0646C36.8412 18.0646 37.4192 18.644 37.4192 19.355C37.4192 20.066 36.8412 20.6453 36.1288 20.6453C35.4167 20.6451 34.8385 20.0657 34.8385 19.355ZM45.1613 25.8065C44.4489 25.8065 43.8709 25.2271 43.8709 24.5161C43.8709 23.8051 44.4489 23.2258 45.1613 23.2258C45.8737 23.2258 46.4516 23.8051 46.4516 24.5161C46.4516 25.2271 45.8734 25.8065 45.1613 25.8065ZM51.6128 15.4839C50.9004 15.4839 50.3224 14.9046 50.3224 14.1936C50.3224 13.4825 50.9004 12.9032 51.6128 12.9032C52.3251 12.9032 52.9031 13.4825 52.9031 14.1936C52.9031 14.9046 52.3251 15.4839 51.6128 15.4839Z" fill="#333333"/>
</g>
</g>
</g>
</g>
</svg>
