<svg width="19" height="19" viewBox="0 0 19 19" fill="none" xmlns="http://www.w3.org/2000/svg">
<path d="M18.8097 17.8508L12.0498 11.091C14.4241 8.18715 13.9948 3.90836 11.091 1.53404C8.18718 -0.840288 3.90836 -0.410988 1.53404 2.49284C-0.840288 5.39667 -0.410987 9.67549 2.49284 12.0498C4.99407 14.0949 8.58979 14.0949 11.091 12.0498L17.8509 18.8097C18.1203 19.0698 18.5495 19.0624 18.8097 18.793C19.0634 18.5302 19.0634 18.1136 18.8097 17.8508ZM6.80277 12.2275C3.8082 12.2241 1.38143 9.79735 1.37809 6.80277C1.37809 3.80681 3.80681 1.37809 6.80277 1.37809C9.79874 1.37809 12.2275 3.80681 12.2275 6.80277C12.2275 9.79874 9.79874 12.2275 6.80277 12.2275Z" fill="#010212"/>
</svg>
