<svg width="56" height="54" viewBox="0 0 56 54" fill="none" xmlns="http://www.w3.org/2000/svg">
<rect x="0.00488281" width="55.3472" height="54" rx="10.1136" fill="#2CACF4"/>
<path fill-rule="evenodd" clip-rule="evenodd" d="M39.3118 24.6416C41.1015 25.7371 41.7736 27.7099 41.4747 29.5381L39.3861 40.573C38.9386 42.7657 37.0004 44.3722 34.6871 44.3722H20.0705C17.7591 44.3722 15.819 42.7639 15.3715 40.573L13.2848 29.5363C12.9859 27.7832 13.7322 25.8103 15.522 24.7131C16.5653 23.9822 16.79 22.7402 15.522 22.3024C13.7322 21.6448 14.1054 19.5254 15.8951 19.5254H26.7838C28.4993 19.5254 30.5879 20.7673 30.5879 24.7864C30.5879 28.8054 28.6497 28.4408 28.6497 31.2893C28.6497 32.5313 29.6931 33.8466 30.9611 33.9931C33.124 34.2129 34.392 33.4087 34.392 30.4852C34.392 27.4883 32.6023 26.0998 32.6023 23.6158C32.6023 20.619 34.5405 19.4502 35.8085 19.4502H38.9405C40.7302 19.4502 41.1034 21.5697 39.3137 22.2273C38.0438 22.7402 38.2684 23.984 39.3118 24.6416ZM17.0128 17.9903C16.2664 17.9903 15.5962 17.3327 15.5962 16.6018C15.5962 14.9201 19.922 13.6782 24.8437 13.6782C25.2911 13.6782 25.59 13.6782 25.59 13.3136C25.59 12.656 24.0993 12.4362 24.0993 11.3408C24.0973 10.1721 25.5158 9.44116 27.3055 9.44116C29.0952 9.44116 30.5118 10.1721 30.5118 11.3408C30.5118 12.4362 29.021 12.5827 29.021 13.3136C29.021 13.5335 29.2456 13.6782 29.7673 13.6782C34.689 13.6782 39.089 14.8469 39.089 16.6018C39.089 17.3327 38.4931 17.9903 37.6725 17.9903H17.0128Z" fill="white"/>
</svg>
